/* XPM */
static char * exit_xpm[] = {
"64 64 172 2",
"  	c #000000",
". 	c #80FEB0",
"+ 	c #7FFBAE",
"@ 	c #7EFAAD",
"# 	c #7EF9AD",
"$ 	c #7DF8AC",
"% 	c #80FCAF",
"& 	c #81FFB1",
"* 	c #7AF3A8",
"= 	c #77EDA4",
"- 	c #75E8A1",
"; 	c #74E69F",
"> 	c #73E69F",
", 	c #74E7A0",
"' 	c #76EAA2",
") 	c #79F0A7",
"! 	c #7DF7AB",
"~ 	c #7BF3A9",
"{ 	c #72E29C",
"] 	c #69D191",
"^ 	c #63C689",
"/ 	c #60C185",
"( 	c #5FBE83",
"_ 	c #61C286",
": 	c #66CC8D",
"< 	c #6EDB98",
"[ 	c #77ECA4",
"} 	c #76EBA3",
"| 	c #67CE8E",
"1 	c #55AD76",
"2 	c #499566",
"3 	c #42885D",
"4 	c #3F8258",
"5 	c #3E8158",
"6 	c #438B5F",
"7 	c #50A26F",
"8 	c #70DF9A",
"9 	c #7BF5AA",
"0 	c #60C285",
"a 	c #489465",
"b 	c #346E4A",
"c 	c #265538",
"d 	c #204930",
"e 	c #1E452D",
"f 	c #1D422B",
"g 	c #1C412A",
"h 	c #1B4029",
"i 	c #1C4029",
"j 	c #1F472E",
"k 	c #2B5D3E",
"l 	c #3F8359",
"m 	c #57B079",
"n 	c #6CD895",
"o 	c #5EBE83",
"p 	c #448C5F",
"q 	c #193B26",
"r 	c #0B2214",
"s 	c #091C10",
"t 	c #081B0F",
"u 	c #06160C",
"v 	c #05140A",
"w 	c #05130A",
"x 	c #07180D",
"y 	c #081C10",
"z 	c #0E2617",
"A 	c #397851",
"B 	c #54AB75",
"C 	c #6BD593",
"D 	c #7AF2A8",
"E 	c #73E59F",
"F 	c #5EBD82",
"G 	c #438A5E",
"H 	c #2A5C3D",
"I 	c #14321F",
"J 	c #06160B",
"K 	c #5EBF83",
"L 	c #7CF5AA",
"M 	c #6FDD99",
"N 	c #68D08F",
"O 	c #387650",
"P 	c #54AA75",
"Q 	c #7AF1A7",
"R 	c #3C7F55",
"S 	c #37754F",
"T 	c #65CA8C",
"U 	c #58B279",
"V 	c #79F0A6",
"W 	c #80FDAF",
"X 	c #59B47C",
"Y 	c #0F1C0F",
"Z 	c #61C487",
"` 	c #7CF6AB",
" .	c #63C88A",
"..	c #71DE9A",
"+.	c #52A572",
"@.	c #7FFCAF",
"#.	c #4E9D6C",
"$.	c #1E4029",
"%.	c #4C9B6A",
"&.	c #42895C",
"*.	c #224931",
"=.	c #60C386",
"-.	c #6AD593",
";.	c #68D191",
">.	c #122612",
",.	c #5DB97F",
"'.	c #193520",
").	c #72E49E",
"!.	c #5AB57D",
"~.	c #143222",
"{.	c #51A471",
"].	c #6AD493",
"^.	c #102A19",
"/.	c #50A370",
"(.	c #4B9B6A",
"_.	c #4B9968",
":.	c #53A772",
"<.	c #5AB67E",
"[.	c #7DF7AC",
"}.	c #41875C",
"|.	c #80FDB0",
"1.	c #5BB67D",
"2.	c #0D0D0D",
"3.	c #0B2216",
"4.	c #62C588",
"5.	c #62C78A",
"6.	c #153521",
"7.	c #2C5F3F",
"8.	c #1A3D27",
"9.	c #030C05",
"0.	c #010301",
"a.	c #000100",
"b.	c #041209",
"c.	c #05150B",
"d.	c #6BD694",
"e.	c #112C1B",
"f.	c #0A1F12",
"g.	c #081C0F",
"h.	c #081A0E",
"i.	c #0B2113",
"j.	c #163522",
"k.	c #1D442C",
"l.	c #469163",
"m.	c #3C7E55",
"n.	c #3B7C54",
"o.	c #3A7952",
"p.	c #336D49",
"q.	c #306745",
"r.	c #2F6644",
"s.	c #2F6544",
"t.	c #306845",
"u.	c #36714C",
"v.	c #3B7B53",
"w.	c #3B7A53",
"x.	c #3C7D54",
"y.	c #41865B",
"z.	c #4D9E6C",
"A.	c #5FBF84",
"B.	c #70DE9A",
"C.	c #7BF4A9",
"D.	c #6FDE99",
"E.	c #5BB77E",
"F.	c #59B37B",
"G.	c #5BB87E",
"H.	c #61C386",
"I.	c #75E9A1",
"J.	c #72E39D",
"K.	c #71E19C",
"L.	c #70E09B",
"M.	c #70DF9B",
"N.	c #71E29C",
"O.	c #81FEB0",
"                                                                                                                                ",
"                                                                                                                                ",
"                                                                                                                                ",
"                                                                                                                                ",
"                                                                                                                                ",
"                                                                                                                                ",
"                                                                                                                                ",
"                                                                                                                                ",
"                                                                                                                                ",
"                                                                                                                                ",
"                                                                                                                                ",
"                                                                                                                                ",
"                                                                                                                                ",
"                                                                                                                                ",
"                                                                                                                                ",
"                                                                                                                                ",
"                                                                                                                                ",
"                                                                                                                                ",
"                                                                                                                                ",
"                  . + @ # $ $ $ $ $ $ $ $ $ $ $ $ $ $ $ $ $ $ $ $ $ $ $ $ $ $ $ $ $ $ $ $ $ $ $ $ # + % &                       ",
"                  @ * = - ; > > > > > > > > > > > > > > > > > > > > > > > > > > > > > > > > > > , ' ) ! %                       ",
"                  ~ { ] ^ / ( ( ( ( ( ( ( ( ( ( ( ( ( ( ( ( ( ( ( ( ( ( ( ( ( ( ( ( ( ( ( ( ( ( _ : < [ #                       ",
"                  } | 1 2 3 4 5 5 5 5 5 5 5 5 5 5 5 5 5 5 5 5 5 5 5 5 5 5 5 5 5 5 5 5 5 5 5 5 4 6 7 / 8 9                       ",
"                  , 0 a b c d e f f g h h h h h h h h h h h h h h h h h h h h h h h i g f f e j k l m n *                       ",
"                  > o p k q r s s t u v v v v v v v v v v v v v v v v v v v v v v w v x y s s z j A B C D                       ",
"                  E F G H I J   K L & E                                                   M N s e O P C Q                       ",
"                  E F G H I J R & l                                                       M N s e O P C Q                       ",
"                  E F G H I J 7 %                                                         M N s e S P C Q                       ",
"                  E F G H T & & & & & E       U V W ) X         U V W ) X       Y Z ` @  ...N s e S P C Q                       ",
"                  E F G H I J +.@.          7 W #.$.%.@.+.    7 W #.$.%.@.+.    X $ &.*.=.& N s e S P C Q                       ",
"                  E F G H I J +.@.          ; -.      ;.'     ; -.      ;.'     D =.    >.` N s e S P C Q                       ",
"                  E F G H I J +.@.          $ ,.      X +     $ ,.      X +   '.& +.      ).N s e S P C Q                       ",
"                  E F G H I J +.@.          $ ,.      !.+     $ ,.      !.+   ~.& {.      ).N s e S P C Q                       ",
"                  E F G H I J +.@.          ; ].      ;.'     ; ].      ;.'     Q =.    ^.` N s e S P C Q                       ",
"                  E F G H I J +.@.          /.% (.$._.@.:.    /.% (.$._.@.:.    <.[.}.j =.& N s e S P C Q                       ",
"                  E F G H I J +.@.            X ) |.Q 1.2.      X ) |.Q 1.2.    3.4.[.@ 5...N s e S P C Q                       ",
"                  E F G H 6.s                                                                 s e O P C Q                       ",
"                  > o p 7.8.z s J v 9.0.a.          a.      a.                a.    0.b.c.J s z d A B d.Q                       ",
"                  , 0 a b c d e e g e.f.g.t t t t t t t t t t t t t t t t t t t t h.i.j.k.e e d H 4 m n D                       ",
"                  ' : P l.l m.n.n.o.p.q.r.s.s.s.s.s.s.s.s.s.s.s.s.s.s.s.s.s.s.s.s.s.t.u.v.n.w.x.y.z.A.B.C.                      ",
"                  Q D.T o E.X X X X X X X X X X X X X X X X X X X X X X X X X X X X X X X X F.X G.H.d.I.$                       ",
"                  # ) - J.K.L.M.M.M.M.L.L.L.L.L.L.L.L.L.L.L.L.L.L.L.L.L.L.L.L.L.L.L.L.L.L.M.M.M.N.> = L +                       ",
"                  |.@.@ # $ $ $ $ $ $ $ $ $ $ $ $ $ $ $ $ $ $ $ $ $ $ $ $ $ $ $ $ $ $ $ $ $ $ $ $ @ + W O.                      ",
"                  & & & & & & & & & & & & & & & & & & & & & & & & & & & & & & & & & & & & & & & & & & & &                       ",
"                                                                                                                                ",
"                                                                                                                                ",
"                                                                                                                                ",
"                                                                                                                                ",
"                                                                                                                                ",
"                                                                                                                                ",
"                                                                                                                                ",
"                                                                                                                                ",
"                                                                                                                                ",
"                                                                                                                                ",
"                                                                                                                                ",
"                                                                                                                                ",
"                                                                                                                                ",
"                                                                                                                                ",
"                                                                                                                                ",
"                                                                                                                                ",
"                                                                                                                                ",
"                                                                                                                                ",
"                                                                                                                                ",
"                                                                                                                                "};
