/* XPM */
static char * wall_xpm[] = {
"64 64 10 1",
" 	c #EC95D7",
".	c #000000",
"+	c #F08484",
"@	c #DCEA74",
"#	c #472940",
"$	c #DA8AC7",
"%	c #482323",
"&	c #DE7A7A",
"*	c #41461E",
"=	c #CCD96B",
"  ..++..@@..  ..++..@@..  ..++..@@..  ..++..@@..  ..++..@@..  ..",
"  ..++..@@..  ..++..@@..  ..++..@@..  ..++..@@..  ..++..@@..  ..",
"##............................................................$$",
"%%............................................................$$",
"&&............................................................##",
"&&............................................................%%",
"%%............................................................&&",
"**............................................................&&",
"==............................................................%%",
"==............................................................**",
"**............................................................==",
"##............................................................==",
"$$............................................................**",
"$$............................................................##",
"##............................................................$$",
"%%............................................................$$",
"&&............................................................##",
"&&............................................................%%",
"%%............................................................&&",
"**............................................................&&",
"==............................................................%%",
"==............................................................**",
"**............................................................==",
"##............................................................==",
"$$............................................................**",
"$$............................................................##",
"##............................................................$$",
"%%............................................................$$",
"&&............................................................##",
"&&............................................................%%",
"%%............................................................&&",
"**............................................................&&",
"==............................................................%%",
"==............................................................**",
"**............................................................==",
"##............................................................==",
"$$............................................................**",
"$$............................................................##",
"##............................................................$$",
"%%............................................................$$",
"&&............................................................##",
"&&............................................................%%",
"%%............................................................&&",
"**............................................................&&",
"==............................................................%%",
"==............................................................**",
"**............................................................==",
"##............................................................==",
"$$............................................................**",
"$$............................................................##",
"##............................................................$$",
"%%............................................................$$",
"&&............................................................##",
"&&............................................................%%",
"%%............................................................&&",
"**............................................................&&",
"==............................................................%%",
"==............................................................**",
"**............................................................==",
"##............................................................==",
"$$............................................................**",
"$$............................................................##",
"..  ..++..@@..  ..++..@@..  ..++..@@..  ..++..@@..  ..++..@@..  ",
"..  ..++..@@..  ..++..@@..  ..++..@@..  ..++..@@..  ..++..@@..  "};
