/* XPM */
static char * b_top_xpm[] = {
"64 64 8 1",
" 	c #000000",
".	c #DA8AC7",
"+	c #472940",
"@	c #482323",
"#	c #DE7A7A",
"$	c #41461E",
"%	c #CCD96B",
"&	c #EC95D7",
"                                                                ",
"                                                                ",
"                                                              ..",
"                                                              ..",
"                                                              ++",
"                                                              @@",
"                                                              ##",
"                                                              ##",
"                                                              @@",
"                                                              $$",
"                                                              %%",
"                                                              %%",
"                                                              $$",
"                                                              ++",
"                                                              ..",
"                                                              ..",
"                                                              ++",
"                                                              @@",
"                                                              ##",
"                                                              ##",
"                                                              @@",
"                                                              $$",
"                                                              %%",
"                                                              %%",
"                                                              $$",
"                                                              ++",
"                                                              ..",
"                                                              ..",
"                                                              ++",
"                                                              @@",
"                                                              ##",
"                                                              ##",
"                                                              @@",
"                                                              $$",
"                                                              %%",
"                                                              %%",
"                                                              $$",
"                                                              ++",
"                                                              ..",
"                                                              ..",
"                                                              ++",
"                                                              @@",
"                                                              ##",
"                                                              ##",
"                                                              @@",
"                                                              $$",
"                                                              %%",
"                                                              %%",
"                                                              $$",
"                                                              ++",
"                                                              ..",
"                                                              ..",
"                                                              ++",
"                                                              @@",
"                                                              ##",
"                                                              ##",
"                                                              @@",
"                                                              $$",
"                                                              %%",
"                                                              %%",
"                                                              $$",
"                                                              ++",
"                                                              &&",
"                                                              &&"};
