/* XPM */
static char * iva_white_xpm[] = {
"64 64 169 2",
"  	c #000000",
". 	c #FEFEFE",
"+ 	c #FBFBFB",
"@ 	c #FAFAFA",
"# 	c #F9F9F9",
"$ 	c #F8F8F8",
"% 	c #FCFCFC",
"& 	c #FFFFFF",
"* 	c #F3F3F3",
"= 	c #EDEDED",
"- 	c #E8E8E8",
"; 	c #E6E6E6",
"> 	c #E7E7E7",
", 	c #EAEAEA",
"' 	c #F0F0F0",
") 	c #F7F7F7",
"! 	c #E2E2E2",
"~ 	c #D1D1D1",
"{ 	c #C6C6C6",
"] 	c #C1C1C1",
"^ 	c #BEBEBE",
"/ 	c #C2C2C2",
"( 	c #CCCCCC",
"_ 	c #DBDBDB",
": 	c #ECECEC",
"< 	c #EBEBEB",
"[ 	c #CECECE",
"} 	c #ADADAD",
"| 	c #959595",
"1 	c #888888",
"2 	c #828282",
"3 	c #818181",
"4 	c #8B8B8B",
"5 	c #A2A2A2",
"6 	c #DFDFDF",
"7 	c #F5F5F5",
"8 	c #949494",
"9 	c #6E6E6E",
"0 	c #555555",
"a 	c #494949",
"b 	c #454545",
"c 	c #424242",
"d 	c #474747",
"e 	c #5D5D5D",
"f 	c #838383",
"g 	c #B0B0B0",
"h 	c #D8D8D8",
"i 	c #8C8C8C",
"j 	c #3B3B3B",
"k 	c #222222",
"l 	c #1C1C1C",
"m 	c #262626",
"n 	c #787878",
"o 	c #ABABAB",
"p 	c #D5D5D5",
"q 	c #F2F2F2",
"r 	c #E5E5E5",
"s 	c #BDBDBD",
"t 	c #8A8A8A",
"u 	c #5C5C5C",
"v 	c #323232",
"w 	c #161616",
"x 	c #767676",
"y 	c #AAAAAA",
"z 	c #F1F1F1",
"A 	c #D86262",
"B 	c #944141",
"C 	c #757575",
"D 	c #994D4D",
"E 	c #FF7676",
"F 	c #C45959",
"G 	c #ED6D6D",
"H 	c #F97373",
"I 	c #DB6464",
"J 	c #5C2424",
"K 	c #562323",
"L 	c #EE6E6E",
"M 	c #682B2B",
"N 	c #B85252",
"O 	c #CF5F5F",
"P 	c #843939",
"Q 	c #E76A6A",
"R 	c #FB7474",
"S 	c #E66A6A",
"T 	c #753333",
"U 	c #8B3E3E",
"V 	c #FE7676",
"W 	c #813838",
"X 	c #2E0D0D",
"Y 	c #BD5656",
"Z 	c #C85A5A",
"` 	c #8D3D3D",
" .	c #873C3C",
"..	c #E96B6B",
"+.	c #381717",
"@.	c #451B1B",
"#.	c #ED6C6C",
"$.	c #7E3838",
"%.	c #2A1010",
"&.	c #974444",
"*.	c #E56A6A",
"=.	c #E36868",
"-.	c #A24949",
";.	c #160606",
">.	c #B45151",
",.	c #F27070",
"'.	c #D76363",
").	c #C05757",
"!.	c #712F2F",
"~.	c #FA7474",
"{.	c #CA5C5C",
"].	c #BB5454",
"^.	c #823838",
"/.	c #D86363",
"(.	c #F16F6F",
"_.	c #6D2E2E",
":.	c #A34949",
"<.	c #0D0000",
"[.	c #DA6464",
"}.	c #994343",
"|.	c #8E3F3F",
"1.	c #E26868",
"2.	c #BE5656",
"3.	c #F47070",
"4.	c #9B4444",
"5.	c #7C3737",
"6.	c #622828",
"7.	c #602929",
"8.	c #E56969",
"9.	c #B55252",
"0.	c #D25F5F",
"a.	c #5A2525",
"b.	c #F57171",
"c.	c #9F4747",
"d.	c #D36060",
"e.	c #F06F6F",
"f.	c #BE5757",
"g.	c #401818",
"h.	c #944242",
"i.	c #E86B6B",
"j.	c #833A3A",
"k.	c #DF6666",
"l.	c #EF6E6E",
"m.	c #491D1D",
"n.	c #353535",
"o.	c #5F5F5F",
"p.	c #3D3D3D",
"q.	c #D6D6D6",
"r.	c #919191",
"s.	c #7E7E7E",
"t.	c #7C7C7C",
"u.	c #7A7A7A",
"v.	c #7D7D7D",
"w.	c #868686",
"x.	c #9E9E9E",
"y.	c #BFBFBF",
"z.	c #DEDEDE",
"A.	c #F4F4F4",
"B.	c #CACACA",
"C.	c #B7B7B7",
"D.	c #B4B4B4",
"E.	c #B3B3B3",
"F.	c #B8B8B8",
"G.	c #C3C3C3",
"H.	c #E9E9E9",
"I.	c #E3E3E3",
"J.	c #E1E1E1",
"K.	c #E0E0E0",
"L.	c #FDFDFD",
"                                                                                                                                ",
"                                                                                                                                ",
"                                                                                                                                ",
"                                                                                                                                ",
"                                                                                                                                ",
"                                                                                                                                ",
"                                                                                                                                ",
"                                                                                                                                ",
"                                                                                                                                ",
"                                                                                                                                ",
"                                                                                                                                ",
"                                                                                                                                ",
"                                                                                                                                ",
"                                                                                                                                ",
"                                                                                                                                ",
"                                                                                                                                ",
"                                                                                                                                ",
"                                                                                                                                ",
"                                                                                                                                ",
"                  . + @ # $ $ $ $ $ $ $ $ $ $ $ $ $ $ $ $ $ $ $ $ $ $ $ $ $ $ $ $ $ $ $ $ $ $ $ $ # + % &                       ",
"                  @ * = - ; ; ; ; ; ; ; ; ; ; ; ; ; ; ; ; ; ; ; ; ; ; ; ; ; ; ; ; ; ; ; ; ; ; ; > , ' ) %                       ",
"                  * ! ~ { ] ^ ^ ^ ^ ^ ^ ^ ^ ^ ^ ^ ^ ^ ^ ^ ^ ^ ^ ^ ^ ^ ^ ^ ^ ^ ^ ^ ^ ^ ^ ^ ^ ^ ^ / ( _ : #                       ",
"                  < [ } | 1 2 3 3 3 3 3 3 3 3 3 3 3 3 3 3 3 3 3 3 3 3 3 3 3 3 3 3 3 3 3 3 3 3 2 4 5 ] 6 7                       ",
"                  > / 8 9 0 a b c c c c c c c c c c c c c c c c c c c c c c c c c c c c c c b d e f g h *                       ",
"                  ; ^ i e j k l l l l l l l l l l l l l l l l l l l l l l l l l l l l l l l l m d n o p q                       ",
"                  r s t u v w                                                                 l b x y p z                       ",
"                  r s t u v w                                                                 l b x y p z                       ",
"                  r s t u v w A B                                                             l b C y p z                       ",
"                  r s t u v w A B                                                             l b C y p z                       ",
"                  r s t u D E E E E F     G E H I J   K L M   N O     P Q R S T     U G V E W l b C y p z                       ",
"                  r s t u v w A B             X Y Z     ` S  ...+.  @.#.$.%.&.*.    =.-.;.    l b C y p z                       ",
"                  r s t u v w A B         >.,.V E '.      ).H !.    ` E E E E ~.    {.Q ].^.  l b C y p z                       ",
"                  r s t u v w /.B       !.(._.;.:.A     <.[.(.}.    |.1.            ;.|.2.3.4.l b C y p z                       ",
"                  r s t u v w O N ;.    5.L 6.7.8.A     9.0.a.L M   @.b.c.X             +.d.>.l b C y p z                       ",
"                  r s t u v w ^.e.E F     {.~.L f.A   P #.g.  h.i.X   j.*.R E k.    l.E R I m.l b C y p z                       ",
"                  r s t u v w                                                                 l b C y p z                       ",
"                  r s t u n.l                                                                 l b x y p z                       ",
"                  ; ^ i o.p.m l w w l l w w w w w w l w w w l w w w w w w w w l w w w l w w l m a n o q.z                       ",
"                  > / 8 9 0 a b b b b b b b b b b b b b b b b b b b b b b b b b b b b b b b b a u 2 g h q                       ",
"                  , ( y r.f s.t.t.t.t.t.t.t.t.t.t.t.t.t.t.t.t.t.t.t.t.t.t.t.t.t.t.t.t.t.t.t.u.v.w.x.y.z.A.                      ",
"                  z z.B.^ C.D.D.D.D.D.D.D.D.D.D.D.D.D.D.D.D.D.D.D.D.D.D.D.D.D.D.D.D.D.D.D.D.E.D.F.G.q.H.$                       ",
"                  # ' - I.J.K.6 6 6 6 K.K.K.K.K.K.K.K.K.K.K.K.K.K.K.K.K.K.K.K.K.K.K.K.K.K.6 6 6 ! ; = 7 +                       ",
"                  L.% @ # $ $ $ $ $ $ $ $ $ $ $ $ $ $ $ $ $ $ $ $ $ $ $ $ $ $ $ $ $ $ $ $ $ $ $ $ @ + L..                       ",
"                  & & & & & & & & & & & & & & & & & & & & & & & & & & & & & & & & & & & & & & & & & & & &                       ",
"                                                                                                                                ",
"                                                                                                                                ",
"                                                                                                                                ",
"                                                                                                                                ",
"                                                                                                                                ",
"                                                                                                                                ",
"                                                                                                                                ",
"                                                                                                                                ",
"                                                                                                                                ",
"                                                                                                                                ",
"                                                                                                                                ",
"                                                                                                                                ",
"                                                                                                                                ",
"                                                                                                                                ",
"                                                                                                                                ",
"                                                                                                                                ",
"                                                                                                                                ",
"                                                                                                                                ",
"                                                                                                                                ",
"                                                                                                                                "};
