/* XPM */
static char * iva_red_xpm[] = {
"64 64 117 2",
"  	c #000000",
". 	c #FE0000",
"+ 	c #FB0000",
"@ 	c #FA0000",
"# 	c #F90000",
"$ 	c #F80000",
"% 	c #FC0000",
"& 	c #FF0000",
"* 	c #F30000",
"= 	c #ED0000",
"- 	c #E80000",
"; 	c #E60000",
"> 	c #E70000",
", 	c #EA0000",
"' 	c #F00000",
") 	c #F70000",
"! 	c #E20000",
"~ 	c #D10000",
"{ 	c #C60000",
"] 	c #C10000",
"^ 	c #BE0000",
"/ 	c #C20000",
"( 	c #CC0000",
"_ 	c #DB0000",
": 	c #EC0000",
"< 	c #EB0000",
"[ 	c #CE0000",
"} 	c #AD0000",
"| 	c #950000",
"1 	c #880000",
"2 	c #820000",
"3 	c #810000",
"4 	c #8B0000",
"5 	c #A20000",
"6 	c #DF0000",
"7 	c #F50000",
"8 	c #940000",
"9 	c #6E0000",
"0 	c #550000",
"a 	c #490000",
"b 	c #450000",
"c 	c #420000",
"d 	c #470000",
"e 	c #5D0000",
"f 	c #830000",
"g 	c #B00000",
"h 	c #D80000",
"i 	c #8C0000",
"j 	c #3B0000",
"k 	c #220000",
"l 	c #1C0000",
"m 	c #260000",
"n 	c #780000",
"o 	c #AB0000",
"p 	c #D50000",
"q 	c #F20000",
"r 	c #E50000",
"s 	c #BD0000",
"t 	c #8A0000",
"u 	c #5C0000",
"v 	c #320000",
"w 	c #160000",
"x 	c #C40000",
"y 	c #CD0000",
"z 	c #760000",
"A 	c #AA0000",
"B 	c #F10000",
"C 	c #750000",
"D 	c #A50000",
"E 	c #400000",
"F 	c #7A0000",
"G 	c #3D0000",
"H 	c #620000",
"I 	c #D40000",
"J 	c #F60000",
"K 	c #C50000",
"L 	c #A30000",
"M 	c #D20000",
"N 	c #9B0000",
"O 	c #350000",
"P 	c #6A0000",
"Q 	c #AE0000",
"R 	c #B60000",
"S 	c #DD0000",
"T 	c #920000",
"U 	c #BB0000",
"V 	c #D60000",
"W 	c #530000",
"X 	c #DC0000",
"Y 	c #E00000",
"Z 	c #C70000",
"` 	c #A40000",
" .	c #A70000",
"..	c #7E0000",
"+.	c #4B0000",
"@.	c #2E0000",
"#.	c #850000",
"$.	c #EE0000",
"%.	c #5F0000",
"&.	c #910000",
"*.	c #7C0000",
"=.	c #7D0000",
"-.	c #860000",
";.	c #9E0000",
">.	c #BF0000",
",.	c #DE0000",
"'.	c #F40000",
").	c #CA0000",
"!.	c #B70000",
"~.	c #B40000",
"{.	c #B30000",
"].	c #B80000",
"^.	c #C30000",
"/.	c #E90000",
"(.	c #E30000",
"_.	c #E10000",
":.	c #FD0000",
"                                                                                                                                ",
"                                                                                                                                ",
"                                                                                                                                ",
"                                                                                                                                ",
"                                                                                                                                ",
"                                                                                                                                ",
"                                                                                                                                ",
"                                                                                                                                ",
"                                                                                                                                ",
"                                                                                                                                ",
"                                                                                                                                ",
"                                                                                                                                ",
"                                                                                                                                ",
"                                                                                                                                ",
"                                                                                                                                ",
"                                                                                                                                ",
"                                                                                                                                ",
"                                                                                                                                ",
"                                                                                                                                ",
"                  . + @ # $ $ $ $ $ $ $ $ $ $ $ $ $ $ $ $ $ $ $ $ $ $ $ $ $ $ $ $ $ $ $ $ $ $ $ $ # + % &                       ",
"                  @ * = - ; ; ; ; ; ; ; ; ; ; ; ; ; ; ; ; ; ; ; ; ; ; ; ; ; ; ; ; ; ; ; ; ; ; ; > , ' ) %                       ",
"                  * ! ~ { ] ^ ^ ^ ^ ^ ^ ^ ^ ^ ^ ^ ^ ^ ^ ^ ^ ^ ^ ^ ^ ^ ^ ^ ^ ^ ^ ^ ^ ^ ^ ^ ^ ^ ^ / ( _ : #                       ",
"                  < [ } | 1 2 3 3 3 3 3 3 3 3 3 3 3 3 3 3 3 3 3 3 3 3 3 3 3 3 3 3 3 3 3 3 3 3 2 4 5 ] 6 7                       ",
"                  > / 8 9 0 a b c c c c c c c c c c c c c c c c c c c c c c c c c c c c c c b d e f g h *                       ",
"                  ; ^ i e j k l l l l l l l l l l l l l l l l l l l l l l l l l l l l l l l l m d n o p q                       ",
"                  r s t u v w               x y                                               l b z A p B                       ",
"                  r s t u v w                                                                 l b z A p B                       ",
"                  r s t u v w                                                                 l b C A p B                       ",
"                  r s t u v w                                                                 l b C A p B                       ",
"                  r s t u v w           D & & y       z + E     F + G   H I $ J K l           l b C A p B                       ",
"                  r s t u v w               x y         , L     x M     ^ N O P = Q           l b C A p B                       ",
"                  r s t u v w               x y         R S   w * T             U V           l b C A p B                       ",
"                  r s t u v w               x y         e % W t 7 k     8 > @ & & X           l b C A p B                       ",
"                  r s t u v w               x y           Y Q y Z     j % ` j   ^ S           l b C A p B                       ",
"                  r s t u v w               x y            .> $ ..    +.& T @.#.* S           l b C A p B                       ",
"                  r s t u v w           B & & & & $       b + $.        o * + S x S           l b C A p B                       ",
"                  r s t u O l                                                                 l b z A p B                       ",
"                  ; ^ i %.G m l w w l l w w w w w w l w w w l w w w w w w w w l w w w l w w l m a n o V B                       ",
"                  > / 8 9 0 a b b b b b b b b b b b b b b b b b b b b b b b b b b b b b b b b a u 2 g h q                       ",
"                  , ( A &.f ..*.*.*.*.*.*.*.*.*.*.*.*.*.*.*.*.*.*.*.*.*.*.*.*.*.*.*.*.*.*.*.F =.-.;.>.,.'.                      ",
"                  B ,.).^ !.~.~.~.~.~.~.~.~.~.~.~.~.~.~.~.~.~.~.~.~.~.~.~.~.~.~.~.~.~.~.~.~.{.~.].^.V /.$                       ",
"                  # ' - (._.Y 6 6 6 6 Y Y Y Y Y Y Y Y Y Y Y Y Y Y Y Y Y Y Y Y Y Y Y Y Y Y 6 6 6 ! ; = 7 +                       ",
"                  :.% @ # $ $ $ $ $ $ $ $ $ $ $ $ $ $ $ $ $ $ $ $ $ $ $ $ $ $ $ $ $ $ $ $ $ $ $ $ @ + :..                       ",
"                  & & & & & & & & & & & & & & & & & & & & & & & & & & & & & & & & & & & & & & & & & & & &                       ",
"                                                                                                                                ",
"                                                                                                                                ",
"                                                                                                                                ",
"                                                                                                                                ",
"                                                                                                                                ",
"                                                                                                                                ",
"                                                                                                                                ",
"                                                                                                                                ",
"                                                                                                                                ",
"                                                                                                                                ",
"                                                                                                                                ",
"                                                                                                                                ",
"                                                                                                                                ",
"                                                                                                                                ",
"                                                                                                                                ",
"                                                                                                                                ",
"                                                                                                                                ",
"                                                                                                                                ",
"                                                                                                                                ",
"                                                                                                                                "};
