/* XPM */
static char * iva_red_xpm[] = {
"64 64 173 2",
"  	c #000000",
". 	c #EF8383",
"+ 	c #ED8282",
"@ 	c #EB8181",
"# 	c #EA8181",
"$ 	c #E98080",
"% 	c #EC8282",
"& 	c #ED8383",
"* 	c #F08484",
"= 	c #E47D7D",
"- 	c #DF7A7A",
"; 	c #DA7878",
"> 	c #D87676",
", 	c #D97777",
"' 	c #DC7979",
") 	c #E27C7C",
"! 	c #E88080",
"~ 	c #E57E7E",
"{ 	c #D57474",
"] 	c #C56B6B",
"^ 	c #BA6565",
"/ 	c #B56262",
"( 	c #B36161",
"_ 	c #B76363",
": 	c #C06868",
"< 	c #CE7171",
"[ 	c #DE7A7A",
"} 	c #DD7979",
"| 	c #C26969",
"1 	c #A25757",
"2 	c #8C4B4B",
"3 	c #804444",
"4 	c #7A4040",
"5 	c #794040",
"6 	c #834545",
"7 	c #985151",
"8 	c #D27373",
"9 	c #E67E7E",
"0 	c #B66363",
"a 	c #8B4A4A",
"b 	c #673535",
"c 	c #4F2828",
"d 	c #442121",
"e 	c #401F1F",
"f 	c #3E1E1E",
"g 	c #422020",
"h 	c #572C2C",
"i 	c #7B4141",
"j 	c #A65959",
"k 	c #CB6F6F",
"l 	c #B26161",
"m 	c #844646",
"n 	c #371919",
"o 	c #1F0C0C",
"p 	c #1A0909",
"q 	c #230E0E",
"r 	c #713B3B",
"s 	c #A15656",
"t 	c #C96D6D",
"u 	c #B26060",
"v 	c #824545",
"w 	c #562B2B",
"x 	c #2E1414",
"y 	c #140606",
"z 	c #6E3A3A",
"A 	c #A05656",
"B 	c #E37D7D",
"C 	c #D86262",
"D 	c #944141",
"E 	c #6D3939",
"F 	c #994444",
"G 	c #FF7676",
"H 	c #C45959",
"I 	c #ED6D6D",
"J 	c #F97373",
"K 	c #DB6464",
"L 	c #5C2424",
"M 	c #562323",
"N 	c #EE6E6E",
"O 	c #682B2B",
"P 	c #B85252",
"Q 	c #CF5F5F",
"R 	c #843939",
"S 	c #E76A6A",
"T 	c #FB7474",
"U 	c #E66A6A",
"V 	c #753333",
"W 	c #8B3E3E",
"X 	c #FE7676",
"Y 	c #813838",
"Z 	c #2E0D0D",
"` 	c #BD5656",
" .	c #C85A5A",
"..	c #8D3D3D",
"+.	c #873C3C",
"@.	c #E96B6B",
"#.	c #381717",
"$.	c #451B1B",
"%.	c #ED6C6C",
"&.	c #7E3838",
"*.	c #2A1010",
"=.	c #974444",
"-.	c #E56A6A",
";.	c #E36868",
">.	c #A24949",
",.	c #160606",
"'.	c #B45151",
").	c #F27070",
"!.	c #D76363",
"~.	c #C05757",
"{.	c #712F2F",
"].	c #FA7474",
"^.	c #CA5C5C",
"/.	c #BB5454",
"(.	c #823838",
"_.	c #D86363",
":.	c #F16F6F",
"<.	c #6D2E2E",
"[.	c #A34949",
"}.	c #0D0000",
"|.	c #DA6464",
"1.	c #994343",
"2.	c #8E3F3F",
"3.	c #E26868",
"4.	c #BE5656",
"5.	c #F47070",
"6.	c #9B4444",
"7.	c #7C3737",
"8.	c #622828",
"9.	c #602929",
"0.	c #E56969",
"a.	c #B55252",
"b.	c #D25F5F",
"c.	c #5A2525",
"d.	c #F57171",
"e.	c #9F4747",
"f.	c #D36060",
"g.	c #F06F6F",
"h.	c #BE5757",
"i.	c #401818",
"j.	c #944242",
"k.	c #E86B6B",
"l.	c #833A3A",
"m.	c #DF6666",
"n.	c #EF6E6E",
"o.	c #491D1D",
"p.	c #311616",
"q.	c #592D2D",
"r.	c #391B1B",
"s.	c #C96E6E",
"t.	c #884848",
"u.	c #763E3E",
"v.	c #743D3D",
"w.	c #733C3C",
"x.	c #753D3D",
"y.	c #7E4242",
"z.	c #944F4F",
"A.	c #B46161",
"B.	c #D17272",
"C.	c #BE6767",
"D.	c #AC5D5D",
"E.	c #AA5C5C",
"F.	c #A95B5B",
"G.	c #A85B5B",
"H.	c #AD5D5D",
"I.	c #DB7878",
"J.	c #D67575",
"K.	c #D47474",
"L.	c #D37373",
"M.	c #E77F7F",
"N.	c #EE8383",
"O.	c #EA8080",
"P.	c #EF8484",
"                                                                                                                                ",
"                                                                                                                                ",
"                                                                                                                                ",
"                                                                                                                                ",
"                                                                                                                                ",
"                                                                                                                                ",
"                                                                                                                                ",
"                                                                                                                                ",
"                                                                                                                                ",
"                                                                                                                                ",
"                                                                                                                                ",
"                                                                                                                                ",
"                                                                                                                                ",
"                                                                                                                                ",
"                                                                                                                                ",
"                                                                                                                                ",
"                                                                                                                                ",
"                                                                                                                                ",
"                                                                                                                                ",
"                  . + @ # $ $ $ $ $ $ $ $ $ $ $ $ $ $ $ $ $ $ $ $ $ $ $ $ $ $ $ $ $ $ $ $ $ $ $ $ # % & *                       ",
"                  @ = - ; > > > > > > > > > > > > > > > > > > > > > > > > > > > > > > > > > > > , ' ) ! &                       ",
"                  ~ { ] ^ / ( ( ( ( ( ( ( ( ( ( ( ( ( ( ( ( ( ( ( ( ( ( ( ( ( ( ( ( ( ( ( ( ( ( _ : < [ #                       ",
"                  } | 1 2 3 4 5 5 5 5 5 5 5 5 5 5 5 5 5 5 5 5 5 5 5 5 5 5 5 5 5 5 5 5 5 5 5 5 4 6 7 / 8 9                       ",
"                  , 0 a b c d e f f f f f f f f f f f f f f f f f f f f f f f f f f f f f f e g h i j k =                       ",
"                  > l m h n o p p p p p p p p p p p p p p p p p p p p p p p p p p p p p p p p q g r s t =                       ",
"                  > u v w x y                                                                 p e z A t B                       ",
"                  > u v w x y                                                                 p e z A t B                       ",
"                  > u v w x y C D                                                             p e E A t B                       ",
"                  > u v w x y C D                                                             p e E A t B                       ",
"                  > u v w F G G G G H     I G J K L   M N O   P Q     R S T U V     W I X G Y p e E A t B                       ",
"                  > u v w x y C D             Z `  .    ..U +.@.#.  $.%.&.*.=.-.    ;.>.,.    p e E A t B                       ",
"                  > u v w x y C D         '.).X G !.      ~.J {.    ..G G G G ].    ^.S /.(.  p e E A t B                       ",
"                  > u v w x y _.D       {.:.<.,.[.C     }.|.:.1.    2.3.            ,.2.4.5.6.p e E A t B                       ",
"                  > u v w x y Q P ,.    7.N 8.9.0.C     a.b.c.N O   $.d.e.Z             #.f.'.p e E A t B                       ",
"                  > u v w x y (.g.G H     ^.].N h.C   R %.i.  j.k.Z   l.-.T G m.    n.G T K o.p e E A t B                       ",
"                  > u v w x y                                                                 p e E A t B                       ",
"                  > u v w p.p                                                                 p e z A t B                       ",
"                  > l m q.r.q p y y p p y y y y y y p y y y p y y y y y y y y p y y y p y y p q d r s s.B                       ",
"                  , 0 a b c d e e e e e e e e e e e e e e e e e e e e e e e e e e e e e e e e d w 4 j k =                       ",
"                  ' : A t.i u.v.v.v.v.v.v.v.v.v.v.v.v.v.v.v.v.v.v.v.v.v.v.v.v.v.v.v.v.v.v.v.w.x.y.z.A.B.9                       ",
"                  B B.C.l D.E.F.F.F.F.F.F.F.F.F.F.F.F.F.F.F.F.F.F.F.F.F.F.F.F.F.F.F.F.F.F.F.G.F.H._ s.I.$                       ",
"                  # ) ; J.K.L.8 8 8 8 L.L.L.L.L.L.L.L.L.L.L.L.L.L.L.L.L.L.L.L.L.L.L.L.L.L.8 8 8 K.> - M.+                       ",
"                  N.+ @ # O.$ $ $ $ $ $ $ $ $ $ $ $ $ $ $ $ $ $ $ $ $ $ $ $ $ $ $ $ $ $ $ $ $ $ O.@ % N.P.                      ",
"                  * * * * * * * * * * * * * * * * * * * * * * * * * * * * * * * * * * * * * * * * * * * *                       ",
"                                                                                                                                ",
"                                                                                                                                ",
"                                                                                                                                ",
"                                                                                                                                ",
"                                                                                                                                ",
"                                                                                                                                ",
"                                                                                                                                ",
"                                                                                                                                ",
"                                                                                                                                ",
"                                                                                                                                ",
"                                                                                                                                ",
"                                                                                                                                ",
"                                                                                                                                ",
"                                                                                                                                ",
"                                                                                                                                ",
"                                                                                                                                ",
"                                                                                                                                ",
"                                                                                                                                ",
"                                                                                                                                ",
"                                                                                                                                "};
