/* XPM */
static char * iva_white_xpm[] = {
"64 64 145 2",
"  	c #000000",
". 	c #FEFEFE",
"+ 	c #FBFBFB",
"@ 	c #FAFAFA",
"# 	c #F9F9F9",
"$ 	c #F8F8F8",
"% 	c #FCFCFC",
"& 	c #FFFFFF",
"* 	c #F3F3F3",
"= 	c #EDEDED",
"- 	c #E8E8E8",
"; 	c #E6E6E6",
"> 	c #E7E7E7",
", 	c #EAEAEA",
"' 	c #F0F0F0",
") 	c #F7F7F7",
"! 	c #E2E2E2",
"~ 	c #D1D1D1",
"{ 	c #C6C6C6",
"] 	c #C1C1C1",
"^ 	c #BEBEBE",
"/ 	c #C2C2C2",
"( 	c #CCCCCC",
"_ 	c #DBDBDB",
": 	c #ECECEC",
"< 	c #EBEBEB",
"[ 	c #CECECE",
"} 	c #ADADAD",
"| 	c #959595",
"1 	c #888888",
"2 	c #828282",
"3 	c #818181",
"4 	c #8B8B8B",
"5 	c #A2A2A2",
"6 	c #DFDFDF",
"7 	c #F5F5F5",
"8 	c #949494",
"9 	c #6E6E6E",
"0 	c #555555",
"a 	c #494949",
"b 	c #454545",
"c 	c #424242",
"d 	c #474747",
"e 	c #5D5D5D",
"f 	c #838383",
"g 	c #B0B0B0",
"h 	c #D8D8D8",
"i 	c #8C8C8C",
"j 	c #3B3B3B",
"k 	c #222222",
"l 	c #1C1C1C",
"m 	c #262626",
"n 	c #787878",
"o 	c #ABABAB",
"p 	c #D5D5D5",
"q 	c #F2F2F2",
"r 	c #E5E5E5",
"s 	c #BDBDBD",
"t 	c #8A8A8A",
"u 	c #5C5C5C",
"v 	c #323232",
"w 	c #161616",
"x 	c #C40000",
"y 	c #CD0000",
"z 	c #767676",
"A 	c #AAAAAA",
"B 	c #F1F1F1",
"C 	c #757575",
"D 	c #A50000",
"E 	c #FF0000",
"F 	c #760000",
"G 	c #FB0000",
"H 	c #400000",
"I 	c #7A0000",
"J 	c #3D0000",
"K 	c #620000",
"L 	c #D40000",
"M 	c #F80000",
"N 	c #F60000",
"O 	c #C50000",
"P 	c #1C0000",
"Q 	c #EA0000",
"R 	c #A30000",
"S 	c #D20000",
"T 	c #BE0000",
"U 	c #9B0000",
"V 	c #350000",
"W 	c #6A0000",
"X 	c #ED0000",
"Y 	c #AE0000",
"Z 	c #B60000",
"` 	c #DD0000",
" .	c #160000",
"..	c #F30000",
"+.	c #920000",
"@.	c #BB0000",
"#.	c #D60000",
"$.	c #5D0000",
"%.	c #FC0000",
"&.	c #530000",
"*.	c #8A0000",
"=.	c #F50000",
"-.	c #220000",
";.	c #940000",
">.	c #E70000",
",.	c #FA0000",
"'.	c #DC0000",
").	c #E00000",
"!.	c #C70000",
"~.	c #3B0000",
"{.	c #A40000",
"].	c #A70000",
"^.	c #7E0000",
"/.	c #4B0000",
"(.	c #2E0000",
"_.	c #850000",
":.	c #F10000",
"<.	c #450000",
"[.	c #EE0000",
"}.	c #AB0000",
"|.	c #353535",
"1.	c #5F5F5F",
"2.	c #3D3D3D",
"3.	c #D6D6D6",
"4.	c #919191",
"5.	c #7E7E7E",
"6.	c #7C7C7C",
"7.	c #7A7A7A",
"8.	c #7D7D7D",
"9.	c #868686",
"0.	c #9E9E9E",
"a.	c #BFBFBF",
"b.	c #DEDEDE",
"c.	c #F4F4F4",
"d.	c #CACACA",
"e.	c #B7B7B7",
"f.	c #B4B4B4",
"g.	c #B3B3B3",
"h.	c #B8B8B8",
"i.	c #C3C3C3",
"j.	c #E9E9E9",
"k.	c #E3E3E3",
"l.	c #E1E1E1",
"m.	c #E0E0E0",
"n.	c #FDFDFD",
"                                                                                                                                ",
"                                                                                                                                ",
"                                                                                                                                ",
"                                                                                                                                ",
"                                                                                                                                ",
"                                                                                                                                ",
"                                                                                                                                ",
"                                                                                                                                ",
"                                                                                                                                ",
"                                                                                                                                ",
"                                                                                                                                ",
"                                                                                                                                ",
"                                                                                                                                ",
"                                                                                                                                ",
"                                                                                                                                ",
"                                                                                                                                ",
"                                                                                                                                ",
"                                                                                                                                ",
"                                                                                                                                ",
"                  . + @ # $ $ $ $ $ $ $ $ $ $ $ $ $ $ $ $ $ $ $ $ $ $ $ $ $ $ $ $ $ $ $ $ $ $ $ $ # + % &                       ",
"                  @ * = - ; ; ; ; ; ; ; ; ; ; ; ; ; ; ; ; ; ; ; ; ; ; ; ; ; ; ; ; ; ; ; ; ; ; ; > , ' ) %                       ",
"                  * ! ~ { ] ^ ^ ^ ^ ^ ^ ^ ^ ^ ^ ^ ^ ^ ^ ^ ^ ^ ^ ^ ^ ^ ^ ^ ^ ^ ^ ^ ^ ^ ^ ^ ^ ^ ^ / ( _ : #                       ",
"                  < [ } | 1 2 3 3 3 3 3 3 3 3 3 3 3 3 3 3 3 3 3 3 3 3 3 3 3 3 3 3 3 3 3 3 3 3 2 4 5 ] 6 7                       ",
"                  > / 8 9 0 a b c c c c c c c c c c c c c c c c c c c c c c c c c c c c c c b d e f g h *                       ",
"                  ; ^ i e j k l l l l l l l l l l l l l l l l l l l l l l l l l l l l l l l l m d n o p q                       ",
"                  r s t u v w               x y                                               l b z A p B                       ",
"                  r s t u v w                                                                 l b z A p B                       ",
"                  r s t u v w                                                                 l b C A p B                       ",
"                  r s t u v w                                                                 l b C A p B                       ",
"                  r s t u v w           D E E y       F G H     I G J   K L M N O P           l b C A p B                       ",
"                  r s t u v w               x y         Q R     x S     T U V W X Y           l b C A p B                       ",
"                  r s t u v w               x y         Z `    ...+.            @.#.          l b C A p B                       ",
"                  r s t u v w               x y         $.%.&.*.=.-.    ;.>.,.E E '.          l b C A p B                       ",
"                  r s t u v w               x y           ).Y y !.    ~.%.{.~.  T `           l b C A p B                       ",
"                  r s t u v w               x y           ].>.M ^.    /.E +.(._...`           l b C A p B                       ",
"                  r s t u v w           :.E E E E M       <.G [.        }...G ` x `           l b C A p B                       ",
"                  r s t u |.l                                                                 l b z A p B                       ",
"                  ; ^ i 1.2.m l w w l l w w w w w w l w w w l w w w w w w w w l w w w l w w l m a n o 3.B                       ",
"                  > / 8 9 0 a b b b b b b b b b b b b b b b b b b b b b b b b b b b b b b b b a u 2 g h q                       ",
"                  , ( A 4.f 5.6.6.6.6.6.6.6.6.6.6.6.6.6.6.6.6.6.6.6.6.6.6.6.6.6.6.6.6.6.6.6.7.8.9.0.a.b.c.                      ",
"                  B b.d.^ e.f.f.f.f.f.f.f.f.f.f.f.f.f.f.f.f.f.f.f.f.f.f.f.f.f.f.f.f.f.f.f.f.g.f.h.i.3.j.$                       ",
"                  # ' - k.l.m.6 6 6 6 m.m.m.m.m.m.m.m.m.m.m.m.m.m.m.m.m.m.m.m.m.m.m.m.m.m.6 6 6 ! ; = 7 +                       ",
"                  n.% @ # $ $ $ $ $ $ $ $ $ $ $ $ $ $ $ $ $ $ $ $ $ $ $ $ $ $ $ $ $ $ $ $ $ $ $ $ @ + n..                       ",
"                  & & & & & & & & & & & & & & & & & & & & & & & & & & & & & & & & & & & & & & & & & & & &                       ",
"                                                                                                                                ",
"                                                                                                                                ",
"                                                                                                                                ",
"                                                                                                                                ",
"                                                                                                                                ",
"                                                                                                                                ",
"                                                                                                                                ",
"                                                                                                                                ",
"                                                                                                                                ",
"                                                                                                                                ",
"                                                                                                                                ",
"                                                                                                                                ",
"                                                                                                                                ",
"                                                                                                                                ",
"                                                                                                                                ",
"                                                                                                                                ",
"                                                                                                                                ",
"                                                                                                                                ",
"                                                                                                                                ",
"                                                                                                                                "};
