/* XPM */
static char * me_left_xpm[] = {
"64 64 93 2",
"  	c #000000",
". 	c #E791D2",
"+ 	c #CA7FB8",
"@ 	c #BC76AB",
"# 	c #B974A8",
"$ 	c #B873A7",
"% 	c #BE77AD",
"& 	c #D586C2",
"* 	c #E08DCC",
"= 	c #925B85",
"- 	c #583550",
"; 	c #45283E",
"> 	c #43273C",
", 	c #3F2438",
"' 	c #663D5C",
") 	c #B471A4",
"! 	c #E993D4",
"~ 	c #DF8CCB",
"{ 	c #89547C",
"] 	c #3D2336",
"^ 	c #130810",
"/ 	c #0B0409",
"( 	c #53314A",
"_ 	c #B06EA0",
": 	c #3A2134",
"< 	c #513049",
"[ 	c #AF6D9F",
"} 	c #724569",
"| 	c #EC95D7",
"1 	c #C47AB1",
"2 	c #E691D1",
"3 	c #B872A8",
"4 	c #BF78AE",
"5 	c #E691D2",
"6 	c #8F5781",
"7 	c #D787C4",
"8 	c #E18ECD",
"9 	c #A96A9A",
"0 	c #86527A",
"a 	c #A36595",
"b 	c #6B4160",
"c 	c #633B5A",
"d 	c #935B86",
"e 	c #422438",
"f 	c #7B496F",
"g 	c #E28FCE",
"h 	c #9B5F8C",
"i 	c #DCEA74",
"j 	c #341B2E",
"k 	c #4F2F47",
"l 	c #6E4363",
"m 	c #E792D3",
"n 	c #845178",
"o 	c #DD8BC9",
"p 	c #CE82BD",
"q 	c #A76897",
"r 	c #DC8AC8",
"s 	c #220B16",
"t 	c #663C5D",
"u 	c #E490D0",
"v 	c #8B557F",
"w 	c #3D2238",
"x 	c #A56797",
"y 	c #814F74",
"z 	c #2E192E",
"A 	c #8C577F",
"B 	c #5E3754",
"C 	c #9F6390",
"D 	c #935C86",
"E 	c #86537A",
"F 	c #3A2335",
"G 	c #C47BB2",
"H 	c #8D567F",
"I 	c #D485C1",
"J 	c #DF8DCB",
"K 	c #8B557E",
"L 	c #23121E",
"M 	c #1E0F1B",
"N 	c #54324C",
"O 	c #B16EA1",
"P 	c #A16493",
"Q 	c #7A4B6E",
"R 	c #704465",
"S 	c #6F4364",
"T 	c #6B4161",
"U 	c #804F74",
"V 	c #BD76AC",
"W 	c #D183BE",
"X 	c #C67CB4",
"Y 	c #C37AB1",
"Z 	c #C87DB6",
"` 	c #D989C6",
" .	c #EB94D6",
"                                                                                                                                ",
"                                                                                                                                ",
"                                                                                                                                ",
"                                                                                                                                ",
"                                                                                                                                ",
"                                                                                                                                ",
"                                                                                                                                ",
"                                                                                                                                ",
"                                                                                                                                ",
"                                                                                                                                ",
"                                                                                                                                ",
"                                                                                                                                ",
"                                                                                                                                ",
"                                                                                                                                ",
"                                                                                                                                ",
"                                                                                                                                ",
"                                                                                                                                ",
"                                                                                                                                ",
"                                                                                                                                ",
"                                                                                                                                ",
"                                                                                                                                ",
"                                                                                                                                ",
"                                                                                                                                ",
"                                                                                                                                ",
"                                  . + @ # # # # # # # # # # # # # # # # # # # # # $ % &                                         ",
"                                  * = - ; > > > > > > > > > > > > > > > > > > > > , ' ) !                                       ",
"                                  ~ { ] ^ / / / / / / / / / / / / / / / / / / / /   ( _ !                                       ",
"                                  ~ { : /                                           < [ !                                       ",
"                                  ~ { : /   } | 1 2 3 4 5 4       6 7 ! 8 9         < [ !                                       ",
"                                  ~ { : /   } | 0 6 | a b | c   d | 9 e f g h       < [ !                                       ",
"              i i i i i i i i     ~ { : /   } | j k | l   m n   o p       q r       < [ !                                       ",
"            i i i i i i i i i i   ~ { : /   } | s e | t   u v w | x       y | z     < [ !                                       ",
"            i i i i i i i i i i   ~ { : /   } | s e | t   u A w | | | | | | | B     < [ !                                       ",
"            i i i i i i i i i i   ~ { : /   } | s e | t   u A   o C                 < [ !                                       ",
"            i i i i i i i i i i   ~ { : /   } | s e | t   u A   D 8 E F k d G       < [ !                                       ",
"              i i i i i i i i     ~ { : /   } | s e | t   u A     H I ! g G b       < [ !                                       ",
"                                  ~ { ] /                                           < [ !                                       ",
"                                  J K > L M M M M M M M M M M M M M M M M M M M M ^ N O !                                       ",
"                                  8 P Q R S S S S S S S S S S S S S S S S S S S S T U V !                                       ",
"                                  m W X G G G G G G G G G G G G G G G G G G G G G Y Z `  .                                      ",
"                                                                                                                                ",
"                                                                                                                                ",
"                                                                                                                                ",
"                                                                                                                                ",
"                                                                                                                                ",
"                                                                                                                                ",
"                                                                                                                                ",
"                                                                                                                                ",
"                                                                                                                                ",
"                                                                                                                                ",
"                                                                                                                                ",
"                                                                                                                                ",
"                                                                                                                                ",
"                                                                                                                                ",
"                                                                                                                                ",
"                                                                                                                                ",
"                                                                                                                                ",
"                                                                                                                                ",
"                                                                                                                                ",
"                                                                                                                                ",
"                                                                                                                                ",
"                                                                                                                                ",
"                                                                                                                                ",
"                                                                                                                                "};
