/* XPM */
static char * me_up_xpm[] = {
"64 64 93 2",
"  	c #000000",
". 	c #DCEA74",
"+ 	c #E791D2",
"@ 	c #CA7FB8",
"# 	c #BC76AB",
"$ 	c #B974A8",
"% 	c #B873A7",
"& 	c #BE77AD",
"* 	c #D586C2",
"= 	c #E08DCC",
"- 	c #925B85",
"; 	c #583550",
"> 	c #45283E",
", 	c #43273C",
"' 	c #3F2438",
") 	c #663D5C",
"! 	c #B471A4",
"~ 	c #E993D4",
"{ 	c #DF8CCB",
"] 	c #89547C",
"^ 	c #3D2336",
"/ 	c #130810",
"( 	c #0B0409",
"_ 	c #53314A",
": 	c #B06EA0",
"< 	c #3A2134",
"[ 	c #513049",
"} 	c #AF6D9F",
"| 	c #724569",
"1 	c #EC95D7",
"2 	c #C47AB1",
"3 	c #E691D1",
"4 	c #B872A8",
"5 	c #BF78AE",
"6 	c #E691D2",
"7 	c #8F5781",
"8 	c #D787C4",
"9 	c #E18ECD",
"0 	c #A96A9A",
"a 	c #86527A",
"b 	c #A36595",
"c 	c #6B4160",
"d 	c #633B5A",
"e 	c #935B86",
"f 	c #422438",
"g 	c #7B496F",
"h 	c #E28FCE",
"i 	c #9B5F8C",
"j 	c #341B2E",
"k 	c #4F2F47",
"l 	c #6E4363",
"m 	c #E792D3",
"n 	c #845178",
"o 	c #DD8BC9",
"p 	c #CE82BD",
"q 	c #A76897",
"r 	c #DC8AC8",
"s 	c #220B16",
"t 	c #663C5D",
"u 	c #E490D0",
"v 	c #8B557F",
"w 	c #3D2238",
"x 	c #A56797",
"y 	c #814F74",
"z 	c #2E192E",
"A 	c #8C577F",
"B 	c #5E3754",
"C 	c #9F6390",
"D 	c #935C86",
"E 	c #86537A",
"F 	c #3A2335",
"G 	c #C47BB2",
"H 	c #8D567F",
"I 	c #D485C1",
"J 	c #DF8DCB",
"K 	c #8B557E",
"L 	c #23121E",
"M 	c #1E0F1B",
"N 	c #54324C",
"O 	c #B16EA1",
"P 	c #A16493",
"Q 	c #7A4B6E",
"R 	c #704465",
"S 	c #6F4364",
"T 	c #6B4161",
"U 	c #804F74",
"V 	c #BD76AC",
"W 	c #D183BE",
"X 	c #C67CB4",
"Y 	c #C37AB1",
"Z 	c #C87DB6",
"` 	c #D989C6",
" .	c #EB94D6",
"                                                                                                                                ",
"                                                                                                                                ",
"                                                                                                                                ",
"                                                                                                                                ",
"                                                                                                                                ",
"                                                                                                                                ",
"                                                                                                                                ",
"                                                                                                                                ",
"                                                                                                                                ",
"                                                                                                                                ",
"                                                                                                                                ",
"                                                                                                                                ",
"                                                                                                                                ",
"                                                          . . . .                                                               ",
"                                                        . . . . . .                                                             ",
"                                                        . . . . . .                                                             ",
"                                                        . . . . . .                                                             ",
"                                                        . . . . . .                                                             ",
"                                                        . . . . . .                                                             ",
"                                                        . . . . . .                                                             ",
"                                                        . . . . . .                                                             ",
"                                                        . . . . . .                                                             ",
"                                                          . . . .                                                               ",
"                                                                                                                                ",
"                                  + @ # $ $ $ $ $ $ $ $ $ $ $ $ $ $ $ $ $ $ $ $ $ % & *                                         ",
"                                  = - ; > , , , , , , , , , , , , , , , , , , , , ' ) ! ~                                       ",
"                                  { ] ^ / ( ( ( ( ( ( ( ( ( ( ( ( ( ( ( ( ( ( ( (   _ : ~                                       ",
"                                  { ] < (                                           [ } ~                                       ",
"                                  { ] < (   | 1 2 3 4 5 6 5       7 8 ~ 9 0         [ } ~                                       ",
"                                  { ] < (   | 1 a 7 1 b c 1 d   e 1 0 f g h i       [ } ~                                       ",
"                                  { ] < (   | 1 j k 1 l   m n   o p       q r       [ } ~                                       ",
"                                  { ] < (   | 1 s f 1 t   u v w 1 x       y 1 z     [ } ~                                       ",
"                                  { ] < (   | 1 s f 1 t   u A w 1 1 1 1 1 1 1 B     [ } ~                                       ",
"                                  { ] < (   | 1 s f 1 t   u A   o C                 [ } ~                                       ",
"                                  { ] < (   | 1 s f 1 t   u A   D 9 E F k e G       [ } ~                                       ",
"                                  { ] < (   | 1 s f 1 t   u A     H I ~ h G c       [ } ~                                       ",
"                                  { ] ^ (                                           [ } ~                                       ",
"                                  J K , L M M M M M M M M M M M M M M M M M M M M / N O ~                                       ",
"                                  9 P Q R S S S S S S S S S S S S S S S S S S S S T U V ~                                       ",
"                                  m W X G G G G G G G G G G G G G G G G G G G G G Y Z `  .                                      ",
"                                                                                                                                ",
"                                                                                                                                ",
"                                                                                                                                ",
"                                                                                                                                ",
"                                                                                                                                ",
"                                                                                                                                ",
"                                                                                                                                ",
"                                                                                                                                ",
"                                                                                                                                ",
"                                                                                                                                ",
"                                                                                                                                ",
"                                                                                                                                ",
"                                                                                                                                ",
"                                                                                                                                ",
"                                                                                                                                ",
"                                                                                                                                ",
"                                                                                                                                ",
"                                                                                                                                ",
"                                                                                                                                ",
"                                                                                                                                ",
"                                                                                                                                ",
"                                                                                                                                ",
"                                                                                                                                ",
"                                                                                                                                "};
