/* XPM */
static char *b2e42de0d09946ca8b48a4c1ce1f7484gEIsJCkSfkSflzuy[] = {
/* columns rows colors chars-per-pixel */
"24 24 201 2 ",
"   c None",
".  c #290A00",
"X  c #350301",
"o  c #3C0300",
"O  c #2E1600",
"+  c #430101",
"@  c #4D0C00",
"#  c #4D0000",
"$  c #530201",
"%  c #5D0203",
"&  c #550A05",
"*  c #5D1A08",
"=  c #5D0414",
"-  c #620102",
";  c #6A0300",
":  c #630903",
">  c #690309",
",  c #760301",
"<  c #7D010A",
"1  c #760408",
"2  c #65011A",
"3  c #770D13",
"4  c #51370E",
"5  c #5C2A13",
"6  c #592D1A",
"7  c #553D14",
"8  c #62210E",
"9  c #642B11",
"0  c #6B3215",
"q  c #59421A",
"w  c #5F533A",
"e  c #644C26",
"r  c #67502C",
"t  c #715936",
"y  c #69613D",
"u  c #6B5E40",
"i  c #6F6242",
"p  c #716E61",
"a  c #7D6876",
"s  c #830103",
"d  c #8C0002",
"f  c #88000A",
"g  c #830B0E",
"h  c #9B0102",
"j  c #9B010B",
"k  c #940507",
"l  c #8D061A",
"z  c #8A0613",
"x  c #940416",
"c  c #9B0512",
"v  c #980B1C",
"b  c #8D101C",
"n  c #9D1315",
"m  c #A40002",
"M  c #AA020A",
"N  c #A9080E",
"B  c #B90204",
"V  c #B90805",
"C  c #AC0114",
"Z  c #A10A1B",
"A  c #A60616",
"S  c #BC0211",
"D  c #B20A11",
"F  c #BA0B15",
"G  c #BE0B1C",
"H  c #B70419",
"J  c #A5111F",
"K  c #B0141B",
"L  c #8D1827",
"P  c #9C1E24",
"I  c #A81522",
"U  c #B20C24",
"Y  c #88292C",
"T  c #9E2328",
"R  c #992837",
"E  c #A42A37",
"W  c #B32D36",
"Q  c #C30003",
"!  c #C7020A",
"~  c #D4030C",
"^  c #D60006",
"/  c #C30C12",
"(  c #C40419",
")  c #D60215",
"_  c #C5121A",
"`  c #C40D21",
"'  c #C51325",
"]  c #84593D",
"[  c #826D2B",
"{  c #BA3948",
"}  c #8E5642",
"|  c #9F504D",
" . c #B04245",
".. c #AA5357",
"X. c #BA4D54",
"o. c #9B7356",
"O. c #8E6847",
"+. c #A34062",
"@. c #AC5469",
"#. c #C74853",
"$. c #C8535B",
"%. c #DC797F",
"&. c #EC6C70",
"*. c #F0797B",
"=. c #9D845D",
"-. c #A8894F",
";. c #AD895A",
":. c #988764",
">. c #AF8862",
",. c #A28C63",
"<. c #AA9669",
"1. c #B39E6C",
"2. c #B69B77",
"3. c #BD9F74",
"4. c #B79B79",
"5. c #B78D69",
"6. c #B7A16F",
"7. c #BAA575",
"8. c #BDA679",
"9. c #B6A572",
"0. c #C19272",
"q. c #FD877A",
"w. c #C1A774",
"e. c #CCB57C",
"r. c #CFBC7C",
"t. c #D4B47C",
"y. c #D3BD7C",
"u. c #D8AE7A",
"i. c #E47781",
"p. c #A0A09D",
"a. c #AE98A2",
"s. c #BEB2B6",
"d. c #B5A6AD",
"f. c #D9858F",
"g. c #E88186",
"h. c #FF8982",
"j. c #FF9389",
"k. c #F8999C",
"l. c #EE9598",
"z. c #D5B88A",
"x. c #CFAF9F",
"c. c #D6B58D",
"v. c #E2BB82",
"b. c #E29AB2",
"n. c #EF9EA6",
"m. c #C2A3AD",
"M. c #DFAFBF",
"N. c #D8B0B7",
"B. c #ECA3AE",
"V. c #F7A6A7",
"C. c #F9AAA5",
"Z. c #FCADB7",
"A. c #ECBFBC",
"S. c #FFB5BB",
"D. c #DBC588",
"F. c #E9C68C",
"G. c #E4CC8C",
"H. c #E2C885",
"J. c #E7CF92",
"K. c #E7D291",
"L. c #ECD695",
"P. c #F0DC93",
"I. c #E9D58E",
"U. c #F6E299",
"Y. c #F4BCC6",
"T. c #FFBBC4",
"R. c #CFD8CC",
"E. c #DADCD6",
"W. c #F7CCC5",
"Q. c #F8C8CB",
"!. c #EAD1C7",
"~. c #FFD3CD",
"^. c #F8D8CA",
"/. c #F9CCD5",
"(. c #E3DADB",
"). c #EDDFDB",
"_. c #E5DDD6",
"`. c #FFD6DB",
"'. c #F6DAD9",
"]. c #E1E0DF",
"[. c #FFE5DE",
"{. c #EAF2DD",
"}. c #FBF3DE",
"|. c #E6DDE2",
" X c #EEDCE6",
".X c #F4DCE6",
"XX c #FCDBE2",
"oX c #F0D7E4",
"OX c #DCE1E2",
"+X c #E4E3E5",
"@X c #EEEEEA",
"#X c #FDE6E1",
"$X c #FEEDE4",
"%X c #F4EAEA",
"&X c #FFEEEA",
"*X c #F1F9E5",
"=X c #FFFAE7",
"-X c #F3F3EA",
";X c #FCFAEA",
":X c #FAF0E8",
">X c #FFFFF4",
/* pixels */
"                  3 Y | | Y 3                   ",
"              I  .C.[.$X[.[.C.X.I               ",
"          U Z #.~.=X>X=X}.=X=X[.$.J v           ",
"        C H { ~.^.{.*X{.{.*X;X&X`.W U Z         ",
"      Z ( G %.&X:X-X-X-X-X-X-X$X#Xi.G ` Z       ",
"    R ' ) ' Z.[.%X@X%X%X%X@X@X@X[.Z.G ) F T     ",
"    i.M ~ ` Q.).+X+X X.X.X%X+X+X).S.( ) / q.    ",
"  d.k.K B F V.'.+X+XoXoXoX X|.+X'.V.S ^ B j.x.  ",
"  XXl.n _ D g.~.(.OX+X(.(.|.+X(.`.%.! ^ V q.^.  ",
"a /.k.n D N P T.!.(.E.OX(.E.(.`.S.I ! ! / h.^.p ",
"a.Y.*.A F D A { T. XE.R.E._./.T.W F ~ ~ F &.W.p.",
"m.Y.{ k h M C v { i.Y.!.!.Q.f.R N V Q Q S #.Y.m.",
"M.Z.b c h h j j x l L Y R L l c V V B B H v B.N.",
"b.@.< , k d d f f f s s g z x c k h h m A z ..n.",
"+.2 > g s , ; - > ; : : : : : ; ; , s d k s g E ",
"  = % $ % % $ @ @ * 9 0 0 9 8 * @ % ; 1 ; < g   ",
"  o + + + o 5 ] o.o.;.-.-.;.O.o.] 9 $ > > 3 3   ",
"    X X o } >.7.2.:.e.y.y.9.-.a.3.;.} & # =     ",
"      . 5 0.u.F.c.4 D.P.I.e.7 D.K.t.5.5 X       ",
"          c.v.F.z.. L.L.K.y.O z.I.H.w.          ",
"          2.t.H.G.[ I.U.P.H.[ L.K.r.<.          ",
"          i <.e.G.K.K.D.L.K.D.D.z.9.y           ",
"            w :.,.6.8.8.8.7.1.<.,.y             ",
"                  7 e r t e q                   "
};
