/* XPM */
static char *_a79221910e64849e6d4983bc0881d99qfRcsNOT2eMJg8NV[] = {
/* columns rows colors chars-per-pixel */
"32 32 82 1 ",
"  c white",
". c #E3E3FF",
"X c #4848FF",
"o c #1010FF",
"O c #2222FF",
"+ c #AAAAFF",
"@ c #FCFCFF",
"# c #DADAFF",
"$ c #A3A3FF",
"% c #6C6CFF",
"& c #4B4BFF",
"* c #4444FF",
"= c #5656FF",
"- c #8C8CFF",
"; c #D4D4FF",
": c #C5C5FF",
"> c #0A0AFF",
", c blue",
"< c #6666FF",
"1 c #E8E8FF",
"2 c #ABABFF",
"3 c #5E5EFF",
"4 c #2323FF",
"5 c #0707FF",
"6 c #0202FF",
"7 c #2121FF",
"8 c #8181FF",
"9 c #F0F0FF",
"0 c #0C0CFF",
"q c #1616FF",
"w c #DCDCFF",
"e c #FDFDFF",
"r c #EBEBFF",
"t c #BEBEFF",
"y c #7575FF",
"u c #2D2DFF",
"i c #0505FF",
"p c #0B0BFF",
"a c #C7C7FF",
"s c #2020FF",
"d c #5858FF",
"f c #8080FF",
"g c #8A8AFF",
"h c #7F7FFF",
"j c #5C5CFF",
"k c #2F2FFF",
"l c #C4C4FF",
"z c #1212FF",
"x c #1515FF",
"c c #0E0EFF",
"v c #0101FF",
"b c #4A4AFF",
"n c #8787FF",
"m c #B6B6FF",
"M c #D0D0FF",
"N c #D5D5FF",
"B c #9C9CFF",
"V c #4E4EFF",
"C c #1818FF",
"Z c #C3C3FF",
"A c #3B3BFF",
"S c #8989FF",
"D c #D1D1FF",
"F c #F7F7FF",
"G c #B8B8FF",
"H c #DFDFFF",
"J c #6565FF",
"K c #B0B0FF",
"L c #4C4CFF",
"P c #1717FF",
"I c #0606FF",
"U c #0303FF",
"Y c #3737FF",
"T c #7474FF",
"R c #BCBCFF",
"E c #6D6DFF",
"W c #B5B5FF",
"Q c #D2D2FF",
"! c #C8C8FF",
"~ c #1B1BFF",
"^ c #0F0FFF",
"/ c #7676FF",
/* pixels */
"  .XoO+            @#$%&*=-;    ",
"  :>,,<          12345,,,,6789  ",
"  :0,,q8w@   ertyui,,,,,,,,,pa  ",
"  :0,,,,sdfghjkp,,,,,,,,,,,,0l  ",
"  :0,,,,,,,,,,,,,,,,,,,,,,,,0:  ",
"  :0,,,,,,,,,,,,,,,,,,,,,,,,0:  ",
"  :0,,,,,,,,,,,,,,,,,,,,,,,,0:  ",
"  :0,,,,,,,,,,,,,,,,,,,,,,,,0:  ",
"  :0,,,,,,,,,,,,,,,,,,,,,,,,0:  ",
"  :0,,,,,,,,,,,,,,,,,,,,,,,,0:  ",
"  :0,,,,,,,,,,,,,,,,,,,,,,,,0:  ",
"  :0,,,,,,,,,,,,,,,,,,,,,,,,0:  ",
"  :0,,,,,,,,,,,,,,,,,,,,,,,,0:  ",
"  :0,,,,,,,,,,,,,,,,,,,,,,,,0:  ",
"  :0,,,,,,,,,,,,,,,,,,,,,,,,0:  ",
"  :0,,,,,,,,,,,,,,,,,,,,,,,,0:  ",
"  :0,,,,,,,,,,,,,,,,,,,,,,,,0:  ",
"  :0,,,,,,,,,,,,,,,,,,,,,,,,0:  ",
"  :0,,,,,,,,,,,,,,,,,,5zxcv,p:  ",
"  :0,,,,,,,,,,,,,,,qbnmMNaBVCZ  ",
"  :0,,xp,,,,,,,,pASDF      FGH  ",
"  :0,,JKLPIUIxYTR9              ",
"  :0,,E FNW2mQ9                 ",
"  :0,,E                         ",
"  :0,,E                         ",
"  :0,,E                         ",
"  :0,,E                         ",
"  :0,,E                         ",
"  :0,,E                         ",
"  :0,,E                         ",
"  lp,,%                         ",
"  !~^0/                         "
};
