/* XPM */
static char * me_food_xpm[] = {
"64 64 217 2",
"  	c #000000",
". 	c #80FEB0",
"+ 	c #7FFBAE",
"@ 	c #7EFAAD",
"# 	c #7EF9AD",
"$ 	c #7DF8AC",
"% 	c #80FCAF",
"& 	c #81FFB1",
"* 	c #7AF3A8",
"= 	c #77EDA4",
"- 	c #75E8A1",
"; 	c #74E69F",
"> 	c #73E69F",
", 	c #74E7A0",
"' 	c #76EAA2",
") 	c #79F0A7",
"! 	c #7DF7AB",
"~ 	c #7BF3A9",
"{ 	c #72E29C",
"] 	c #69D191",
"^ 	c #63C689",
"/ 	c #60C185",
"( 	c #5FBE83",
"_ 	c #61C286",
": 	c #66CC8D",
"< 	c #6EDB98",
"[ 	c #77ECA4",
"} 	c #76EBA3",
"| 	c #67CE8E",
"1 	c #55AD76",
"2 	c #499566",
"3 	c #42885D",
"4 	c #3F8258",
"5 	c #3E8158",
"6 	c #438B5F",
"7 	c #50A26F",
"8 	c #70DF9A",
"9 	c #7BF5AA",
"0 	c #60C285",
"a 	c #489465",
"b 	c #346E4A",
"c 	c #265538",
"d 	c #204930",
"e 	c #1E452D",
"f 	c #1D422B",
"g 	c #1C412A",
"h 	c #1B4029",
"i 	c #1C4029",
"j 	c #1F472E",
"k 	c #2B5D3E",
"l 	c #3F8359",
"m 	c #57B079",
"n 	c #6CD895",
"o 	c #5EBE83",
"p 	c #448C5F",
"q 	c #193B26",
"r 	c #0B2214",
"s 	c #091C10",
"t 	c #E791D2",
"u 	c #CA7FB8",
"v 	c #BC76AB",
"w 	c #B974A8",
"x 	c #B873A7",
"y 	c #BE77AD",
"z 	c #D586C2",
"A 	c #081C10",
"B 	c #0E2617",
"C 	c #397851",
"D 	c #54AB75",
"E 	c #6BD593",
"F 	c #7AF2A8",
"G 	c #73E59F",
"H 	c #5EBD82",
"I 	c #438A5E",
"J 	c #2A5C3D",
"K 	c #14321F",
"L 	c #06160B",
"M 	c #5EBF83",
"N 	c #E08DCC",
"O 	c #925B85",
"P 	c #583550",
"Q 	c #45283E",
"R 	c #43273C",
"S 	c #3F2438",
"T 	c #663D5C",
"U 	c #B471A4",
"V 	c #E993D4",
"W 	c #6FDD99",
"X 	c #68D08F",
"Y 	c #387650",
"Z 	c #54AA75",
"` 	c #7AF1A7",
" .	c #3C7F55",
"..	c #DF8CCB",
"+.	c #89547C",
"@.	c #3D2336",
"#.	c #53314A",
"$.	c #B06EA0",
"%.	c #3A2134",
"&.	c #513049",
"*.	c #AF6D9F",
"=.	c #37754F",
"-.	c #65CA8C",
";.	c #724569",
">.	c #EC95D7",
",.	c #C47AB1",
"'.	c #E691D1",
").	c #B872A8",
"!.	c #BF78AE",
"~.	c #E691D2",
"{.	c #58B279",
"].	c #8F5781",
"^.	c #D787C4",
"/.	c #E18ECD",
"(.	c #A96A9A",
"_.	c #0F1C0F",
":.	c #61C487",
"<.	c #71DE9A",
"[.	c #52A572",
"}.	c #7FFCAF",
"|.	c #86527A",
"1.	c #A36595",
"2.	c #6B4160",
"3.	c #633B5A",
"4.	c #935B86",
"5.	c #422438",
"6.	c #7B496F",
"7.	c #E28FCE",
"8.	c #9B5F8C",
"9.	c #59B47C",
"0.	c #341B2E",
"a.	c #4F2F47",
"b.	c #6E4363",
"c.	c #E792D3",
"d.	c #845178",
"e.	c #DD8BC9",
"f.	c #CE82BD",
"g.	c #68D191",
"h.	c #A76897",
"i.	c #DC8AC8",
"j.	c #60C386",
"k.	c #7CF6AB",
"l.	c #220B16",
"m.	c #663C5D",
"n.	c #E490D0",
"o.	c #8B557F",
"p.	c #3D2238",
"q.	c #A56797",
"r.	c #814F74",
"s.	c #2E192E",
"t.	c #72E49E",
"u.	c #8C577F",
"v.	c #5E3754",
"w.	c #51A471",
"x.	c #9F6390",
"y.	c #53A772",
"z.	c #50A370",
"A.	c #935C86",
"B.	c #86537A",
"C.	c #3A2335",
"D.	c #C47BB2",
"E.	c #5AB67E",
"F.	c #7DF7AC",
"G.	c #0D0D0D",
"H.	c #8D567F",
"I.	c #D485C1",
"J.	c #0B2216",
"K.	c #62C588",
"L.	c #153521",
"M.	c #2C5F3F",
"N.	c #1A3D27",
"O.	c #DF8DCB",
"P.	c #8B557E",
"Q.	c #23121E",
"R.	c #140812",
"S.	c #140912",
"T.	c #54324C",
"U.	c #B16EA1",
"V.	c #6BD694",
"W.	c #A16493",
"X.	c #7A4B6E",
"Y.	c #704465",
"Z.	c #6F4364",
"`.	c #6B4161",
" +	c #804F74",
".+	c #BD76AC",
"++	c #469163",
"@+	c #3C7E55",
"#+	c #3B7C54",
"$+	c #D183BE",
"%+	c #C67CB4",
"&+	c #C37AB1",
"*+	c #C87DB6",
"=+	c #D989C6",
"-+	c #EB94D6",
";+	c #3B7A53",
">+	c #3C7D54",
",+	c #41865B",
"'+	c #4D9E6C",
")+	c #5FBF84",
"!+	c #70DE9A",
"~+	c #7BF4A9",
"{+	c #6FDE99",
"]+	c #5BB77E",
"^+	c #59B37B",
"/+	c #5BB87E",
"(+	c #61C386",
"_+	c #75E9A1",
":+	c #72E39D",
"<+	c #71E19C",
"[+	c #70E09B",
"}+	c #70DF9B",
"|+	c #71E29C",
"1+	c #7CF5AA",
"2+	c #80FDB0",
"3+	c #80FDAF",
"4+	c #81FEB0",
"                                                                                                                                ",
"                                                                                                                                ",
"                                                                                                                                ",
"                                                                                                                                ",
"                                                                                                                                ",
"                                                                                                                                ",
"                                                                                                                                ",
"                                                                                                                                ",
"                                                                                                                                ",
"                                                                                                                                ",
"                                                                                                                                ",
"                                                                                                                                ",
"                                                                                                                                ",
"                                                                                                                                ",
"                                                                                                                                ",
"                                                                                                                                ",
"                                                                                                                                ",
"                                                                                                                                ",
"                                                                                                                                ",
"                  . + @ # $ $ $ $ $ $ $ $ $ $ $ $ $ $ $ $ $ $ $ $ $ $ $ $ $ $ $ $ $ $ $ $ $ $ $ $ # + % &                       ",
"                  @ * = - ; > > > > > > > > > > > > > > > > > > > > > > > > > > > > > > > > > > , ' ) ! %                       ",
"                  ~ { ] ^ / ( ( ( ( ( ( ( ( ( ( ( ( ( ( ( ( ( ( ( ( ( ( ( ( ( ( ( ( ( ( ( ( ( ( _ : < [ #                       ",
"                  } | 1 2 3 4 5 5 5 5 5 5 5 5 5 5 5 5 5 5 5 5 5 5 5 5 5 5 5 5 5 5 5 5 5 5 5 5 4 6 7 / 8 9                       ",
"                  , 0 a b c d e f f g h h h h h h h h h h h h h h h h h h h h h h h i g f f e j k l m n *                       ",
"                  > o p k q r s s t u v w w w w w w w w w w w w w w w w w w w w w x y z A s s B j C D E F                       ",
"                  G H I J K L   M N O P Q R R R R R R R R R R R R R R R R R R R R S T U V W X s e Y Z E `                       ",
"                  G H I J K L  .& ..+.@.                                            #.$.V W X s e Y Z E `                       ",
"                  G H I J K L 7 % ..+.%.                                            &.*.V W X s e =.Z E `                       ",
"                  G H I J -.& & & ..+.%.    ;.>.,.'.).!.~.!.    {.].^.V /.(.    _.:.&.*.V <.X s e =.Z E `                       ",
"                  G H I J K L [.}...+.%.    ;.>.|.].>.1.2.>.3.7 4.>.(.5.6.7.8.  9.$ &.*.V & X s e =.Z E `                       ",
"                  G H I J K L [.}...+.%.    ;.>.0.a.>.b.' c.d.; e.f.    g.h.i.  F j.&.*.V k.X s e =.Z E `                       ",
"                  G H I J K L [.}...+.%.    ;.>.l.5.>.m.+ n.o.p.>.q.    9.r.>.s.& [.&.*.V t.X s e =.Z E `                       ",
"                  G H I J K L [.}...+.%.    ;.>.l.5.>.m.+ n.u.p.>.>.>.>.>.>.>.v.& w.&.*.V t.X s e =.Z E `                       ",
"                  G H I J K L [.}...+.%.    ;.>.l.5.>.m.' n.u.; e.x.    g.'     ` j.&.*.V k.X s e =.Z E `                       ",
"                  G H I J K L [.}...+.%.    ;.>.l.5.>.m.y.n.u.z.A./.B.C.a.4.D.  E.F.&.*.V & X s e =.Z E `                       ",
"                  G H I J K L [.}...+.%.    ;.>.l.5.>.m.G.n.u.  9.H.I.V 7.D.2.  J.K.&.*.V <.X s e =.Z E `                       ",
"                  G H I J L.s     ..+.@.                                            &.*.V     s e Y Z E `                       ",
"                  > o p M.N.B s L O.P.R Q.R.R.R.R.R.S.R.R.R.S.R.R.R.R.R.R.R.R.S.R.  T.U.V L s B d C D V.`                       ",
"                  , 0 a b c d e e /.W.X.Y.Z.Z.Z.Z.Z.Z.Z.Z.Z.Z.Z.Z.Z.Z.Z.Z.Z.Z.Z.Z.`. +.+V e e d J 4 m n F                       ",
"                  ' : Z ++l @+#+#+c.$+%+D.D.D.D.D.D.D.D.D.D.D.D.D.D.D.D.D.D.D.D.D.&+*+=+-+#+;+>+,+'+)+!+~+                      ",
"                  ` {+-.o ]+9.9.9.9.9.9.9.9.9.9.9.9.9.9.9.9.9.9.9.9.9.9.9.9.9.9.9.9.9.9.9.9.^+9./+(+V._+$                       ",
"                  # ) - :+<+[+}+}+}+}+[+[+[+[+[+[+[+[+[+[+[+[+[+[+[+[+[+[+[+[+[+[+[+[+[+[+}+}+}+|+> = 1++                       ",
"                  2+}.@ # $ $ $ $ $ $ $ $ $ $ $ $ $ $ $ $ $ $ $ $ $ $ $ $ $ $ $ $ $ $ $ $ $ $ $ $ @ + 3+4+                      ",
"                  & & & & & & & & & & & & & & & & & & & & & & & & & & & & & & & & & & & & & & & & & & & &                       ",
"                                                                                                                                ",
"                                                                                                                                ",
"                                                                                                                                ",
"                                                                                                                                ",
"                                                                                                                                ",
"                                                                                                                                ",
"                                                                                                                                ",
"                                                                                                                                ",
"                                                                                                                                ",
"                                                                                                                                ",
"                                                                                                                                ",
"                                                                                                                                ",
"                                                                                                                                ",
"                                                                                                                                ",
"                                                                                                                                ",
"                                                                                                                                ",
"                                                                                                                                ",
"                                                                                                                                ",
"                                                                                                                                ",
"                                                                                                                                "};
