/* XPM */
static char *da265aa364fa4fd8a8e65d37d819a6f6uS57uE4xFsztcTKQ[] = {
/* columns rows colors chars-per-pixel */
"32 32 222 2 ",
"   c None",
".  c #020202",
"X  c #0B0100",
"o  c #05060C",
"O  c #150100",
"+  c #1B0000",
"@  c #110E0C",
"#  c #1C0B06",
"$  c #040719",
"%  c #161413",
"&  c #1C170D",
"*  c #250100",
"=  c #2A0201",
"-  c #2D0B01",
";  c #360000",
":  c #340C00",
">  c #3D0D00",
",  c #330E0B",
"<  c #281208",
"1  c #331202",
"2  c #3B1500",
"3  c #3A1A08",
"4  c #27191A",
"5  c #301E19",
"6  c #382100",
"7  c #3C2214",
"8  c #3E311F",
"9  c #26251A",
"0  c #00092D",
"q  c #090723",
"w  c #001126",
"e  c #081A26",
"r  c #121D2C",
"t  c #071733",
"y  c #3E1521",
"u  c #232825",
"i  c #382C34",
"p  c #393D3B",
"a  c #2E3232",
"s  c #450000",
"d  c #490000",
"f  c #4D0A07",
"g  c #5A0700",
"h  c #411400",
"j  c #451C05",
"k  c #591D01",
"l  c #431C10",
"z  c #571C1C",
"x  c #730701",
"c  c #601D07",
"v  c #731808",
"b  c #492702",
"n  c #552705",
"m  c #472619",
"M  c #552C17",
"N  c #543317",
"B  c #433413",
"V  c #6C2505",
"C  c #6A3208",
"Z  c #60370E",
"A  c #753107",
"S  c #683618",
"D  c #773815",
"F  c #6B2919",
"G  c #531B27",
"H  c #483729",
"J  c #473A36",
"K  c #4D292A",
"L  c #623D2A",
"P  c #663933",
"I  c #7B352D",
"U  c #3E4439",
"Y  c #7E4514",
"T  c #7C430B",
"R  c #52412F",
"E  c #674E23",
"W  c #7B4B2A",
"Q  c #664635",
"!  c #774330",
"~  c #695237",
"^  c #76532F",
"/  c #7B623F",
"(  c #0F2E4D",
")  c #2B3B48",
"_  c #363945",
"`  c #3B2E43",
"'  c #03326E",
"]  c #15396B",
"[  c #1C3672",
"{  c #253C6A",
"}  c #403A43",
"|  c #623B48",
" . c #1F4258",
".. c #365555",
"X. c #294358",
"o. c #11407E",
"O. c #084478",
"+. c #274665",
"@. c #284D72",
"#. c #505554",
"$. c #6B5249",
"%. c #5B615A",
"&. c #6C625A",
"*. c #666665",
"=. c #786562",
"-. c #7E716C",
";. c #7A7779",
":. c #697062",
">. c #910800",
",. c #811600",
"<. c #8D1A09",
"1. c #A31300",
"2. c #962100",
"3. c #962819",
"4. c #8E3111",
"5. c #953813",
"6. c #902D06",
"7. c #AA2207",
"8. c #B32300",
"9. c #AF3115",
"0. c #812C2A",
"q. c #9F2D22",
"w. c #953330",
"e. c #A93628",
"r. c #B53526",
"t. c #A53936",
"y. c #CB3E2E",
"u. c #82431D",
"i. c #814109",
"p. c #A84119",
"a. c #9C4934",
"s. c #8A5032",
"d. c #AA4337",
"f. c #AB542D",
"g. c #8C6734",
"h. c #BD612E",
"j. c #B7633E",
"k. c #DC4317",
"l. c #C8431C",
"z. c #E24C14",
"x. c #E05B1D",
"c. c #C44723",
"v. c #C45021",
"b. c #D0512E",
"n. c #D06931",
"m. c #EC6022",
"M. c #953F48",
"N. c #8E5B42",
"B. c #875556",
"V. c #B45E40",
"C. c #8F7046",
"Z. c #B76944",
"A. c #BF7850",
"S. c #867569",
"D. c #907062",
"F. c #C96E49",
"G. c #E07B54",
"H. c #8D8757",
"J. c #B0945E",
"K. c #AC9258",
"L. c #BA9F6F",
"P. c #BA9A7D",
"I. c #BFBE6F",
"U. c #A9B974",
"Y. c #CD986F",
"T. c #E39974",
"R. c #C5A87A",
"E. c #E7B976",
"W. c #153C87",
"Q. c #0C3985",
"!. c #164B8D",
"~. c #044599",
"^. c #164799",
"/. c #144B8F",
"(. c #7B8387",
"). c #89898A",
"_. c #9F9186",
"`. c #999695",
"'. c #B1999F",
"]. c #A39384",
"[. c #BBA89C",
"{. c #ACABAB",
"}. c #AFB4B2",
"|. c #BEBCBD",
" X c #E29680",
".X c #D6B987",
"XX c #D0B392",
"oX c #C8B180",
"OX c #FFAE88",
"+X c #FBBC93",
"@X c #EAB586",
"#X c #BCCB88",
"$X c #D7D18D",
"%X c #E4C79A",
"&X c #F7CC9B",
"*X c #E7D298",
"=X c #F5DC94",
"-X c #FDD39E",
";X c #FDDB9C",
":X c #F9D397",
">X c #EED48B",
",X c #EDCBA3",
"<X c #F4CEA6",
"1X c #F2D6A4",
"2X c #FBDBA3",
"3X c #FCD1AE",
"4X c #FAD6A8",
"5X c #FFD8B5",
"6X c #EACAB7",
"7X c #FFE5A3",
"8X c #C6C8C8",
"9X c #DBD0CD",
"0X c #E4DDD9",
"qX c #DFE2DF",
"wX c #E6E0C0",
"eX c #E0DDE0",
"rX c #E7E7E6",
"tX c #FEF4E7",
"yX c #FFFEEC",
"uX c #FEFEFD",
"iX c #F8F5F5",
"pX c #FFEBEB",
/* pixels */
"                            = ; d ;                             ",
"                          : D Z.a.s.h                           ",
"                      O V F.j.h.3XT.N.*   o a a .               ",
"                      k n.x.f.&XV.Z. Xf * =.).(.}.#..           ",
"                    ; h.x.m.v.OXG.F.t.v 0.G i p iXiXu           ",
"                  * 4.x.z.z.l.2.6.r.b.f.F z # o {.qXU           ",
"                  d c.k.k.8.1.9.c.p.6.W O O R 0X8XrX%           ",
"                  v y.k.7.2.9.9.5.F.-XE B wXyXtXuX*..           ",
"                f 3.y.7.,.,.i.F.D 5X,Xb 6 ~ ~ [.`..             ",
"              f w.r.r.x d.@X2X4X6 P.%XJ.7X2X.XH & .             ",
"            = I 3.5.v V c +X2X;XC.%X=X=X=X=X*X$.                ",
"            + M D T.Y.n j h -Xg..X2X7X=X=X=X1XC.                ",
"              O &XE.K.L.2 ^ 3X2 * N ^ R.%X,XP.+                 ",
"              . $X>XJ.oXXX<X<X^ * 1 - < 1 1 O                   ",
"                H.$XY.<X5X4X;X&XP , - * 1 * +                   ",
"                X E N.! g.3X;X-X$.1 3 m m +                     ",
"                  * ; f d n @X4XC.M D.Q <                       ",
"                + G 0.t.d.g 3 E g.Q 5 X X     + O               ",
"            o J H M a.q.>.e.P K i } ) r o . O M S > X           ",
"          o *.rXtX6Xv x r.t.| p R U ) { #.9 3 W W W < .         ",
"          `.rXuXuXpXB.0.t.M.` a I.$X..@...:.b D 4.L S..         ",
"        o eX;.{.uXiX'.G G ` { ( U.#X..@. .u n A S M -..         ",
"        @ rXrX;.uXqX8Xt +.@.!.O.( +./.!.o.$ L S Q =.4           ",
"        . |.uXiX0X%.%.e  .!.~.~./.^.~.!.{ q K M m %..           ",
"          @ ).9X9XP 3 4 t ] ~.~.~.W.W.[ 0 o 8 B &.%             ",
"            o X m m S : i t ' ~.Q.W.' 0   . . X @ .             ",
"              H Q S D n y . w t 0 0 o                           ",
"              _.M D A C 7 .                                     ",
"            . ].Z T i.C 1                                       ",
"            . S.Z u.i.S O                                       ",
"              # l ! ! l .                                       ",
"                + = * +                                         "
};
