/* XPM */
static char * collect_xpm[] = {
"64 64 149 2",
"  	c #000000",
". 	c #DBE973",
"+ 	c #D9E772",
"@ 	c #D7E571",
"# 	c #D7E471",
"$ 	c #D6E371",
"% 	c #D8E672",
"& 	c #DAE873",
"* 	c #DCEA74",
"= 	c #D1DF6E",
"- 	c #CCD96B",
"; 	c #C8D569",
"> 	c #C6D368",
", 	c #C7D468",
"' 	c #CAD76A",
") 	c #CFDD6D",
"! 	c #D5E370",
"~ 	c #D2DF6E",
"{ 	c #C3CF66",
"] 	c #B4C05E",
"^ 	c #AAB558",
"/ 	c #A6B156",
"( 	c #A4AE55",
"_ 	c #A7B257",
": 	c #B0BB5B",
"< 	c #BDC963",
"[ 	c #CBD86A",
"} 	c #B1BD5C",
"| 	c #949E4C",
"1 	c #808941",
"2 	c #757C3B",
"3 	c #6F7738",
"4 	c #6E7637",
"5 	c #777F3C",
"6 	c #8B9447",
"7 	c #C0CC64",
"8 	c #D3E06F",
"9 	c #A7B156",
"0 	c #7F8840",
"a 	c #5E652E",
"b 	c #484D22",
"c 	c #3E421C",
"d 	c #3A3E1A",
"e 	c #383C19",
"f 	c #363B18",
"g 	c #363A18",
"h 	c #373B18",
"i 	c #3C401B",
"j 	c #4F5526",
"k 	c #707838",
"l 	c #97A14E",
"m 	c #BAC661",
"n 	c #A3AE54",
"o 	c #78803C",
"p 	c #313515",
"q 	c #1B1E09",
"r 	c #171907",
"s 	c #161806",
"t 	c #121405",
"u 	c #101104",
"v 	c #0F1104",
"w 	c #101204",
"x 	c #131505",
"y 	c #161907",
"z 	c #1F220B",
"A 	c #676E33",
"B 	c #939D4B",
"C 	c #B8C360",
"D 	c #D1DE6E",
"E 	c #C5D267",
"F 	c #A3AD54",
"G 	c #767E3C",
"H 	c #4E5325",
"I 	c #292D11",
"J 	c #111305",
"K 	c #656B32",
"L 	c #929C4B",
"M 	c #D0DD6D",
"N 	c #CEDB6C",
"O 	c #D9E672",
"P 	c #C4D167",
"Q 	c #717839",
"R 	c #98A14D",
"S 	c #D6E471",
"T 	c #818942",
"U 	c #383D17",
"V 	c #949D4B",
"W 	c #646A31",
"X 	c #2E3415",
"Y 	c #99A44F",
"Z 	c #7F8941",
"` 	c #59602A",
" .	c #AAB459",
"..	c #8F9849",
"+.	c #A5B156",
"@.	c #949D4D",
"#.	c #828A42",
"$.	c #585E2B",
"%.	c #353A18",
"&.	c #9BA550",
"*.	c #D4E270",
"=.	c #929D4B",
"-.	c #2C3012",
";.	c #0D0D00",
">.	c #CBD969",
",.	c #D9E572",
"'.	c #747B3A",
").	c #515627",
"!.	c #333716",
"~.	c #080A02",
"{.	c #020200",
"].	c #000100",
"^.	c #0E1004",
"/.	c #111204",
"(.	c #B8C460",
"_.	c #24270E",
":.	c #191B08",
"<.	c #161807",
"[.	c #151706",
"}.	c #1B1D09",
"|.	c #393D19",
"1.	c #7C843F",
"2.	c #6C7336",
"3.	c #6A7134",
"4.	c #676F33",
"5.	c #5D632D",
"6.	c #585E2A",
"7.	c #575D2A",
"8.	c #565C2A",
"9.	c #616730",
"0.	c #697034",
"a.	c #6B7235",
"b.	c #737B3A",
"c.	c #879045",
"d.	c #A4AF55",
"e.	c #BFCB64",
"f.	c #AEB95A",
"g.	c #9EA851",
"h.	c #9AA44F",
"i.	c #9EA852",
"j.	c #A8B357",
"k.	c #C9D669",
"l.	c #C4D066",
"m.	c #C2CE66",
"n.	c #C1CD65",
"o.	c #C2CF66",
"p.	c #D3E16F",
"q.	c #D9E773",
"r.	c #DBE974",
"                                                                                                                                ",
"                                                                                                                                ",
"                                                                                                                                ",
"                                                                                                                                ",
"                                                                                                                                ",
"                                                                                                                                ",
"                                                                                                                                ",
"                                                                                                                                ",
"                                                                                                                                ",
"                                                                                                                                ",
"                                                                                                                                ",
"                                                                                                                                ",
"                                                                                                                                ",
"                                                                                                                                ",
"                                                                                                                                ",
"                                                                                                                                ",
"                                                                                                                                ",
"                                                                                                                                ",
"                                                                                                                                ",
"                  . + @ # $ $ $ $ $ $ $ $ $ $ $ $ $ $ $ $ $ $ $ $ $ $ $ $ $ $ $ $ $ $ $ $ $ $ $ $ # % & *                       ",
"                  @ = - ; > > > > > > > > > > > > > > > > > > > > > > > > > > > > > > > > > > > , ' ) ! &                       ",
"                  ~ { ] ^ / ( ( ( ( ( ( ( ( ( ( ( ( ( ( ( ( ( ( ( ( ( ( ( ( ( ( ( ( ( ( ( ( ( ( _ : < - #                       ",
"                  [ } | 1 2 3 4 4 4 4 4 4 4 4 4 4 4 4 4 4 4 4 4 4 4 4 4 4 4 4 4 4 4 4 4 4 4 4 3 5 6 / 7 8                       ",
"                  , 9 0 a b c d e e f g g g g g g g g g g g g g g g g g g g g g g g g h e e d i j k l m =                       ",
"                  > n o j p q r r s t u v v v v v v v v v v v v v v v v v v v v v v w x y r r z i A B C D                       ",
"                  E F G H I J                                                                 r d K L C M                       ",
"                  E F G H I J         l N O P Q         l N O P Q         l N O P Q           r d K L C M                       ",
"                  E F G H I J       R S T U V {       R S T U V {       R S T U V {           r d W L C M                       ",
"                  E F G H I J     X % Y       Z     X % Y       Z     X % Y       Z           r d W L C M                       ",
"                  E F G H I J     T * `             T * `             T * `                   r d W L C M                       ",
"                  E F G H I J    .* * * * * ..     .* * * * * ..     .* * * * * ..            r d W L C M                       ",
"                  E F G H I J     +.S               +.S               +.S                     r d W L C M                       ",
"                  E F G H I J    .* * * * @.       .* * * * @.       .* * * * @.              r d W L C M                       ",
"                  E F G H I J     #.* $.            #.* $.            #.* $.                  r d W L C M                       ",
"                  E F G H I J     %.O R       Z     %.O R       Z     %.O R       Z           r d W L C M                       ",
"                  E F G H I J       &.*.0 %.=.{       &.*.0 %.=.{       &.*.0 %.=.{           r d W L C M                       ",
"                  E F G H -.r       ;.=.>.,.E '.      ;.=.>.,.E '.      ;.=.>.,.E '.          r d K L C M                       ",
"                  > n o ).!.z r J v ~.{.            ].      ].                ].    {.^./.J r z c A B (.M                       ",
"                  , 9 0 a b c d d h _.:.<.s s s s s s s s s s s s s s s s s s s s [.}.-.|.d d c H 3 l m D                       ",
"                  ' : L 1.k 2.3.3.4.5.6.7.8.8.8.8.8.8.8.8.8.8.8.8.8.8.8.8.8.8.8.8.8.$.9.0.3.0.a.b.c.d.7 8                       ",
"                  M e.f.n g.&.&.&.&.&.&.&.&.&.&.&.&.&.&.&.&.&.&.&.&.&.&.&.&.&.&.&.&.&.&.&.&.h.&.i.j.(.k.$                       ",
"                  # ) ; l.m.n.n.n.n.n.n.n.n.n.n.n.n.n.n.n.n.n.n.n.n.n.n.n.n.n.n.n.n.n.n.n.n.n.n.o.> - p.+                       ",
"                  & q.@ # S $ $ $ $ $ $ $ $ $ $ $ $ $ $ $ $ $ $ $ $ $ $ $ $ $ $ $ $ $ $ $ $ $ $ S @ O & r.                      ",
"                  * * * * * * * * * * * * * * * * * * * * * * * * * * * * * * * * * * * * * * * * * * * *                       ",
"                                                                                                                                ",
"                                                                                                                                ",
"                                                                                                                                ",
"                                                                                                                                ",
"                                                                                                                                ",
"                                                                                                                                ",
"                                                                                                                                ",
"                                                                                                                                ",
"                                                                                                                                ",
"                                                                                                                                ",
"                                                                                                                                ",
"                                                                                                                                ",
"                                                                                                                                ",
"                                                                                                                                ",
"                                                                                                                                ",
"                                                                                                                                ",
"                                                                                                                                ",
"                                                                                                                                ",
"                                                                                                                                ",
"                                                                                                                                "};
