/* XPM */
static char * player_xpm[] = {
"64 64 92 2",
"  	c #000000",
". 	c #E791D2",
"+ 	c #CA7FB8",
"@ 	c #BC76AB",
"# 	c #B974A8",
"$ 	c #B873A7",
"% 	c #BE77AD",
"& 	c #D586C2",
"* 	c #E08DCC",
"= 	c #925B85",
"- 	c #583550",
"; 	c #45283E",
"> 	c #43273C",
", 	c #3F2438",
"' 	c #663D5C",
") 	c #B471A4",
"! 	c #E993D4",
"~ 	c #DF8CCB",
"{ 	c #89547C",
"] 	c #3D2336",
"^ 	c #130810",
"/ 	c #0B0409",
"( 	c #53314A",
"_ 	c #B06EA0",
": 	c #3A2134",
"< 	c #513049",
"[ 	c #AF6D9F",
"} 	c #724569",
"| 	c #EC95D7",
"1 	c #C47AB1",
"2 	c #E691D1",
"3 	c #B872A8",
"4 	c #BF78AE",
"5 	c #E691D2",
"6 	c #8F5781",
"7 	c #D787C4",
"8 	c #E18ECD",
"9 	c #A96A9A",
"0 	c #86527A",
"a 	c #A36595",
"b 	c #6B4160",
"c 	c #633B5A",
"d 	c #935B86",
"e 	c #422438",
"f 	c #7B496F",
"g 	c #E28FCE",
"h 	c #9B5F8C",
"i 	c #341B2E",
"j 	c #4F2F47",
"k 	c #6E4363",
"l 	c #E792D3",
"m 	c #845178",
"n 	c #DD8BC9",
"o 	c #CE82BD",
"p 	c #A76897",
"q 	c #DC8AC8",
"r 	c #220B16",
"s 	c #663C5D",
"t 	c #E490D0",
"u 	c #8B557F",
"v 	c #3D2238",
"w 	c #A56797",
"x 	c #814F74",
"y 	c #2E192E",
"z 	c #8C577F",
"A 	c #5E3754",
"B 	c #9F6390",
"C 	c #935C86",
"D 	c #86537A",
"E 	c #3A2335",
"F 	c #C47BB2",
"G 	c #8D567F",
"H 	c #D485C1",
"I 	c #DF8DCB",
"J 	c #8B557E",
"K 	c #23121E",
"L 	c #1E0F1B",
"M 	c #54324C",
"N 	c #B16EA1",
"O 	c #A16493",
"P 	c #7A4B6E",
"Q 	c #704465",
"R 	c #6F4364",
"S 	c #6B4161",
"T 	c #804F74",
"U 	c #BD76AC",
"V 	c #D183BE",
"W 	c #C67CB4",
"X 	c #C37AB1",
"Y 	c #C87DB6",
"Z 	c #D989C6",
"` 	c #EB94D6",
"                                                                                                                                ",
"                                                                                                                                ",
"                                                                                                                                ",
"                                                                                                                                ",
"                                                                                                                                ",
"                                                                                                                                ",
"                                                                                                                                ",
"                                                                                                                                ",
"                                                                                                                                ",
"                                                                                                                                ",
"                                                                                                                                ",
"                                                                                                                                ",
"                                                                                                                                ",
"                                                                                                                                ",
"                                                                                                                                ",
"                                                                                                                                ",
"                                                                                                                                ",
"                                                                                                                                ",
"                                                                                                                                ",
"                                                                                                                                ",
"                                                                                                                                ",
"                                                                                                                                ",
"                                                                                                                                ",
"                                                                                                                                ",
"                                  . + @ # # # # # # # # # # # # # # # # # # # # # $ % &                                         ",
"                                  * = - ; > > > > > > > > > > > > > > > > > > > > , ' ) !                                       ",
"                                  ~ { ] ^ / / / / / / / / / / / / / / / / / / / /   ( _ !                                       ",
"                                  ~ { : /                                           < [ !                                       ",
"                                  ~ { : /   } | 1 2 3 4 5 4       6 7 ! 8 9         < [ !                                       ",
"                                  ~ { : /   } | 0 6 | a b | c   d | 9 e f g h       < [ !                                       ",
"                                  ~ { : /   } | i j | k   l m   n o       p q       < [ !                                       ",
"                                  ~ { : /   } | r e | s   t u v | w       x | y     < [ !                                       ",
"                                  ~ { : /   } | r e | s   t z v | | | | | | | A     < [ !                                       ",
"                                  ~ { : /   } | r e | s   t z   n B                 < [ !                                       ",
"                                  ~ { : /   } | r e | s   t z   C 8 D E j d F       < [ !                                       ",
"                                  ~ { : /   } | r e | s   t z     G H ! g F b       < [ !                                       ",
"                                  ~ { ] /                                           < [ !                                       ",
"                                  I J > K L L L L L L L L L L L L L L L L L L L L ^ M N !                                       ",
"                                  8 O P Q R R R R R R R R R R R R R R R R R R R R S T U !                                       ",
"                                  l V W F F F F F F F F F F F F F F F F F F F F F X Y Z `                                       ",
"                                                                                                                                ",
"                                                                                                                                ",
"                                                                                                                                ",
"                                                                                                                                ",
"                                                                                                                                ",
"                                                                                                                                ",
"                                                                                                                                ",
"                                                                                                                                ",
"                                                                                                                                ",
"                                                                                                                                ",
"                                                                                                                                ",
"                                                                                                                                ",
"                                                                                                                                ",
"                                                                                                                                ",
"                                                                                                                                ",
"                                                                                                                                ",
"                                                                                                                                ",
"                                                                                                                                ",
"                                                                                                                                ",
"                                                                                                                                ",
"                                                                                                                                ",
"                                                                                                                                ",
"                                                                                                                                ",
"                                                                                                                                "};
